<svg xmlns="http://www.w3.org/2000/svg" version="1.1" xmlns:xlink="http://www.w3.org/1999/xlink" width="512" height="512" x="0" y="0" viewBox="0 0 64 64" style="enable-background:new 0 0 512 512" xml:space="preserve" class=""><g><radialGradient id="a" cx="24.008" cy="52" r="4.123" gradientTransform="matrix(1.333 0 0 1 -.01 0)" gradientUnits="userSpaceOnUse"><stop offset="0" stop-color="#f99"></stop><stop offset="1" stop-color="#f9bca2"></stop></radialGradient><radialGradient xlink:href="#a" id="b" cx="51.525" cy="53.996" r="53.938"></radialGradient><radialGradient id="c" cx="30.865" cy="16.159" r="20.088" gradientTransform="matrix(1.027 0 0 1.03 -.889 -.862)" gradientUnits="userSpaceOnUse"><stop offset="0" stop-color="#fbc8ba"></stop><stop offset="1" stop-color="#fcd0be"></stop></radialGradient><radialGradient xlink:href="#a" id="d" cx="85.125" cy="-.781" r="58.991"></radialGradient><path fill="#3d352f" d="M12.624 37.9S11.3 34.178 11.1 33.7c-.878-2.054-1.945-9.566-.005-17.475C13.478 6.488 22.743 2 32.1 2c0 0 11.366.573 14.518 5.347 0 0 12.668 9.449 4.056 30.366z" opacity="1" data-original="#3d352f"></path><path fill="#93d0d8" d="M25 54h14a8 8 0 0 1 8 8H17a8 8 0 0 1 8-8z" opacity="1" data-original="#93d0d8"></path><path fill="url(#a)" d="M28 47h8v6.536A3.464 3.464 0 0 1 32.536 57h-1.072A3.464 3.464 0 0 1 28 53.536V47z" opacity="1" data-original="url(#a)"></path><path fill="#e58989" d="m36 52.396-8 1.31V47h8z" opacity="1" data-original="#e58989"></path><path fill="url(#a)" d="M18 46c-5.838-.352-8.9-8.526-7.768-10.637 1.172-2.186 4.113-1.087 4.113-1.087h35.31s2.941-1.1 4.113 1.087C54.9 37.474 51.838 45.648 46 46z" opacity="1" data-original="url(#a)"></path><path fill="url(#c)" d="M18.86 47.132a60.814 60.814 0 0 1-3.692-9.791 37.186 37.186 0 0 1-1.131-6.985 27.764 27.764 0 0 1 2.143-12.178C18.559 13.034 22.421 9 31.981 9s13.46 4.034 15.839 9.178a27.764 27.764 0 0 1 2.143 12.178 37.186 37.186 0 0 1-1.131 6.985 60.814 60.814 0 0 1-3.692 9.791c-2.383 5.157-23.897 5.157-26.28 0z" opacity="1" data-original="url(#c)"></path><path fill="url(#a)" d="M47.82 18.178C45.441 13.034 41.54 9 31.981 9s-13.422 4.034-15.8 9.178a27.764 27.764 0 0 0-2.143 12.178 36.558 36.558 0 0 0 .689 5.1 5.628 5.628 0 0 0 1.21-.8 6.848 6.848 0 0 1 3.69-1.98 14.071 14.071 0 0 0 3.747-.654c1.139-.5 2.126-1.292 3.24-1.84a5.386 5.386 0 0 1 3.943-.559 9.065 9.065 0 0 0 4.138.034c2.728-.518 4.639-2.078 6.525-4.036a1.687 1.687 0 0 1 2.84 1.179c.24 2.16 1.14 4.19 1.44 6.35a11.9 11.9 0 0 1-.675 5.784 14.116 14.116 0 0 1-6.952 7.654c-5.749 2.865-12.2 2.3-18.476 1.3 4.045 4.382 23.488 4.132 25.748-.758a60.814 60.814 0 0 0 3.692-9.791 37.186 37.186 0 0 0 1.131-6.985 27.764 27.764 0 0 0-2.148-12.176z" opacity="1" data-original="url(#a)"></path><path fill="#4c443d" d="M44.521 18.71s-3.057 6.683-13.373 10.121a15.886 15.886 0 0 0 3.8-5.109s-7.094 6.827-16.455 7.114a12.444 12.444 0 0 0 3.632-5.252s-5.1 7.4-9.5 8.357c0 0-1.325.237-1.529-.239-.878-2.054-1.945-9.566-.005-17.475C13.478 6.488 22.743 2 32.1 2c0 0 11.366.573 14.518 5.347 0 0 12.1 8.975 5.313 26.448a2.324 2.324 0 0 1-1.863-.43C48.188 31.74 44.9 25.4 44.521 18.71z" opacity="1" data-original="#4c443d"></path><path fill="#4c443d" d="M44.453 18.844c.046.255.09.51.143.762-.028-.3-.058-.6-.075-.9 0 .003-.027.059-.068.138z" opacity="1" data-original="#4c443d"></path><g fill="#3d352f"><path d="M21.342 22.761s-5.184 7.4-9.646 8.357a3.31 3.31 0 0 1-1.263-.019 12.5 12.5 0 0 0 .662 2.6c.2.476 1.529.239 1.529.239 2.855-.62 6-3.957 7.862-6.222a21.162 21.162 0 0 1-2.833.293 12.449 12.449 0 0 0 3.689-5.248zM53.693 19.842a27.282 27.282 0 0 1-2.073 11.129 2.39 2.39 0 0 1-1.891-.429c-1.553-1.318-4.042-5.742-5.129-10.936.6 6.349 3.676 12.207 5.476 13.759a2.324 2.324 0 0 0 1.863.43 26.148 26.148 0 0 0 1.754-13.953zM34.639 24.312a16.1 16.1 0 0 1-3.491 4.519c9.5-3.165 12.835-9.069 13.305-9.987a24.559 24.559 0 0 1-.362-2.958s-2.279 4.863-9.452 8.426zM34.366 20.9A29.643 29.643 0 0 1 21.2 27.6a12.924 12.924 0 0 1-2.709 3.234c7.107-.218 12.9-4.2 15.28-6.107a31.428 31.428 0 0 1-3.261 1.278 15.933 15.933 0 0 0 3.856-5.105z" fill="#3d352f" opacity="1" data-original="#3d352f"></path></g><ellipse cx="19.549" cy="9.949" fill="#68605a" rx="4.596" ry="2.539" transform="rotate(-39.04 19.532 9.944)" opacity="1" data-original="#68605a"></ellipse><path fill="#4c443d" d="M24 35.447c-.643 0-1.165.7-1.165 1.553s.522 1.553 1.165 1.553 1.165-.7 1.165-1.553-.522-1.553-1.165-1.553zM40 35.447c-.643 0-1.165.7-1.165 1.553s.522 1.553 1.165 1.553 1.165-.7 1.165-1.553-.522-1.553-1.165-1.553z" opacity="1" data-original="#4c443d"></path><path fill="#e58989" d="M31.921 46.371a6.064 6.064 0 0 1-4.621-1.744l-1.174.934a7.471 7.471 0 0 0 5.795 2.31c2.589 0 4.94-1.01 5.989-2.574l-1.246-.836c-.764 1.139-2.672 1.91-4.743 1.91z" opacity="1" data-original="#e58989"></path><g fill="#3d352f"><path d="m20.177 33.378.382-1.964 6.308 1.227-.382 1.963zM37.153 32.658l6.307-1.22.38 1.963-6.307 1.22z" fill="#3d352f" opacity="1" data-original="#3d352f"></path></g></g></svg>