<svg xmlns="http://www.w3.org/2000/svg" version="1.1" xmlns:xlink="http://www.w3.org/1999/xlink" width="512" height="512" x="0" y="0" viewBox="0 0 64 64" style="enable-background:new 0 0 512 512" xml:space="preserve" class=""><g><radialGradient id="a" cx="-18.642" cy="51.588" r="4.123" gradientTransform="matrix(1.333 0 0 1 55.99 0)" gradientUnits="userSpaceOnUse"><stop offset="0" stop-color="#f99"></stop><stop offset="1" stop-color="#f9bca2"></stop></radialGradient><radialGradient xlink:href="#a" id="b" cx="47.854" cy="62.325" r="72.141"></radialGradient><radialGradient id="c" cx="26.559" cy="30.046" r="14.548" gradientTransform="matrix(1.027 0 0 1.03 3.722 1.666)" gradientUnits="userSpaceOnUse"><stop offset="0" stop-color="#fbc8ba"></stop><stop offset="1" stop-color="#fcd0be"></stop></radialGradient><radialGradient xlink:href="#a" id="d" cx="91.054" cy="-19.84" r="88.354" gradientTransform="matrix(1.027 0 0 1.03 3.722 1.666)"></radialGradient><path fill="#4c4542" d="M12.824 43.772a8.725 8.725 0 0 1-1.7 5.859 10.776 10.776 0 0 0 3.106-.847 14.265 14.265 0 0 0-1.341 5.294 6.78 6.78 0 0 1 2.965-2.753l-.141 2.824 2.969-2.049 1.2 3.105 20.259.212 1.553-3.812a6.65 6.65 0 0 0 2.965 2.753 11.709 11.709 0 0 1-.565-3.176l3.106 2.825-.424-5.152s2.4 2.541 2.753 4.376a22.8 22.8 0 0 0 .283-9.6l3.09-8.68-3.071-4.744-34.447-2.188-5.1 5.929z" opacity="1" data-original="#4c4542"></path><path fill="#827b75" d="M48.278 34.266c0-24.751-17.2-23.458-17.2-23.458-19.67 0-17.444 23.059-17.444 23.059l-3.347.1c-.189-.659-.479-3.115-.479-3.115l-1.788.658s1.505-2.447 1.505-3.764.377-4.424.377-4.424l-2.353.753A17.608 17.608 0 0 0 10 19.278a15.309 15.309 0 0 1 2.447-3.953l-2.259-.564a26.911 26.911 0 0 0 3.953-2.73 18.628 18.628 0 0 1 5.741-3.482l-2.258-2.071s4.141.565 6.964-.565a14.419 14.419 0 0 1 6.118-.752s.188-1.6-3.388-2.73c0 0 3.576-.47 7.623 3.2l.377-2.918 2.353 3.577 1.317-2.729L40.4 7.043s4.294 1.035 6.365 3.106a8.306 8.306 0 0 0 4.741 2.282l-4.553.447a18.758 18.758 0 0 1 5.459 6.965 11.4 11.4 0 0 0 4.035 5.506 14.579 14.579 0 0 1-4.976-1.836s.67 3.671 2.294 9.13l1.235 2.8-3.071-.843z" opacity="1" data-original="#827b75" class=""></path><path fill="#93d0d8" d="M24.134 53.588h14a8 8 0 0 1 8 8h-30a8 8 0 0 1 8-8z" opacity="1" data-original="#93d0d8"></path><path fill="url(#a)" d="M27.134 46.588h8v6.536a3.464 3.464 0 0 1-3.464 3.464H30.6a3.464 3.464 0 0 1-3.464-3.464v-6.536h-.002z" opacity="1" data-original="url(#a)"></path><path fill="#e58989" d="m35.134 52.255-8 1.31v-3.588h8z" opacity="1" data-original="#e58989"></path><path fill="url(#a)" d="M13.479 33.865s-2.941-1.1-4.112 1.086c-1.131 2.112 1.933 10.285 7.767 10.637h28c5.838-.352 8.9-8.525 7.768-10.637-1.171-2.185-4.113-1.086-4.113-1.086z" opacity="1" data-original="url(#a)"></path><path fill="url(#c)" d="M17.994 46.72a60.8 60.8 0 0 1-3.694-9.79 37.2 37.2 0 0 1-1.131-6.985 27.76 27.76 0 0 1 2.144-12.179c2.378-5.144 6.24-9.178 15.8-9.178s13.461 4.034 15.839 9.178A27.768 27.768 0 0 1 49.1 29.945a37.2 37.2 0 0 1-1.131 6.985 60.609 60.609 0 0 1-3.692 9.79c-2.386 5.158-23.899 5.158-26.283 0z" opacity="1" data-original="url(#c)" class=""></path><path fill="url(#a)" d="M46.954 17.766a14.235 14.235 0 0 0-7.4-7.689 19.56 19.56 0 0 1 1.756 3.078 27.763 27.763 0 0 1 2.14 12.178 37.2 37.2 0 0 1-1.131 6.985 60.609 60.609 0 0 1-3.692 9.79c-1.779 3.85-14.209 4.825-21.394 2.929.265.6.522 1.166.761 1.683 2.384 5.158 23.9 5.158 26.28 0a60.609 60.609 0 0 0 3.692-9.79 37.2 37.2 0 0 0 1.134-6.985 27.768 27.768 0 0 0-2.146-12.179z" opacity="1" data-original="url(#a)"></path><path fill="#68615d" d="M31.134 39.436c-.654-.023-8.419-.183-8.992 5.3l.769 6.5 2.136-.756L26.414 52l2.392-.88 2.264 1.426 2.392-1.426 2.392.88 1.367-1.525 2.136.756.769-6.5c-.573-5.478-8.337-5.318-8.992-5.295zm.009 9.024c-2.808 0-5.084-1.129-5.084-2.521s2.276-2.52 5.084-2.52 5.083 1.128 5.083 2.52-2.276 2.521-5.083 2.521z" opacity="1" data-original="#68615d"></path><ellipse cx="21.736" cy="14.607" fill="#ffe9e1" rx="3.075" ry="2.022" transform="rotate(-39.65 21.748 14.611)" opacity="1" data-original="#ffe9e1"></ellipse><ellipse cx="22.774" cy="33.772" fill="#4c443d" rx="1.799" ry="2.635" opacity="1" data-original="#4c443d"></ellipse><path fill="#4c443d" d="M39.495 31.137c-.994 0-1.8 1.18-1.8 2.635s.806 2.636 1.8 2.636 1.8-1.18 1.8-2.636-.807-2.635-1.8-2.635z" opacity="1" data-original="#4c443d"></path><path fill="#e58989" d="M31.1 45.522a2.223 2.223 0 0 1-1.681-.6l-1.173.935a3.678 3.678 0 0 0 2.854 1.165 3.534 3.534 0 0 0 2.959-1.308l-1.247-.836a2.129 2.129 0 0 1-1.712.644z" opacity="1" data-original="#e58989"></path><g fill="#68615d"><path d="m19.175 28.376.382-1.964 6.308 1.227-.382 1.963zM35.883 27.89l6.309-1.22.38 1.964-6.309 1.22z" fill="#68615d" opacity="1" data-original="#68615d"></path></g></g></svg>