<svg xmlns="http://www.w3.org/2000/svg" version="1.1" xmlns:xlink="http://www.w3.org/1999/xlink" width="512" height="512" x="0" y="0" viewBox="0 0 64 64" style="enable-background:new 0 0 512 512" xml:space="preserve" class=""><g><radialGradient id="a" cx="49.125" cy="47.219" r="46.896" gradientUnits="userSpaceOnUse"><stop offset="0" stop-color="#f99"></stop><stop offset="1" stop-color="#f9bca2"></stop></radialGradient><radialGradient xlink:href="#a" id="b" cx="24.858" cy="50.614" r="4.123" gradientTransform="matrix(1.333 0 0 1 -.01 0)"></radialGradient><radialGradient id="c" cx="31.968" cy="4.997" r="20.088" gradientTransform="matrix(1.027 0 0 1.03 -.889 9.25)" gradientUnits="userSpaceOnUse"><stop offset="0" stop-color="#fbc8ba"></stop><stop offset="1" stop-color="#fcd0be"></stop></radialGradient><radialGradient xlink:href="#a" id="d" cx="62.537" cy="12.489" r="47.025"></radialGradient><path fill="#d8ae82" d="M8.612 36.515s-1.6 6.682-5.93 7.906A8.4 8.4 0 0 0 9.835 43.1s-1.882 4.05-6.023 4.145c0 0 4.329 4.705 9.976 3.67l-3.106 1.694a33.215 33.215 0 0 0 9.6 2.165h24.942l5.552-.188a20.732 20.732 0 0 1-3.576-2.071s7.153 1.788 10.259-1.129c0 0-3.483-.847-4.612-2.259 0 0 6.306.376 8.471-1.977a10.208 10.208 0 0 1-6.212-4.423 36.258 36.258 0 0 0 4.612 0s-3.671-2.918-4.8-6.024v-2.681L43.9 13.336 8.988 34.915z" opacity="1" data-original="#d8ae82" class=""></path><g fill="#c49469"><path d="M61.167 47.214a11.392 11.392 0 0 1-4.836.776 10.539 10.539 0 0 1-3.924-.979 16.333 16.333 0 0 1-2.188 1.337 22.978 22.978 0 0 0 2.628.779s6.306.376 8.471-1.977h-.007c-.049.019-.095.044-.144.064zM6.29 47.494c-.338-.133-.653-.31-.977-.472a6.148 6.148 0 0 1-1.5.223 13.119 13.119 0 0 0 7.224 3.742 9.7 9.7 0 0 0 2.137-1.194 8.968 8.968 0 0 0 1.775-1.643 13.7 13.7 0 0 1-8.659-.656z" fill="#c49469" opacity="1" data-original="#c49469"></path><path d="M57.156 51.624q-.583.063-1.163.113a14.956 14.956 0 0 1-3.569.045 8.79 8.79 0 0 1-5.526-2.76 1.24 1.24 0 0 1 .538-2.038c3.7-1.165 7.4-4.685 8.322-8.608a8.852 8.852 0 0 1-.84-1.673v-2.681L43.9 13.336 8.988 34.915l-.334 1.42a23.649 23.649 0 0 0 2.172 4.807C12.109 43.43 13.9 45.924 16.8 46a1.232 1.232 0 0 1 1.175 1.543c-.77 2.542-3.247 4.554-5.771 5.624a37.755 37.755 0 0 0 8.082 1.607h24.938l5.552-.188a20.732 20.732 0 0 1-3.576-2.071s6.717 1.669 9.956-.891z" fill="#c49469" opacity="1" data-original="#c49469"></path><path d="M52.424 51.782a9.417 9.417 0 0 1-5.088-2.282 2.048 2.048 0 0 0-.12 2.437 3.989 3.989 0 0 0 .594.7c1.723.337 6.7 1.072 9.346-1.022q-.583.063-1.163.113a14.956 14.956 0 0 1-3.569.054z" fill="#c49469" opacity="1" data-original="#c49469"></path></g><path fill="#a87a54" d="M47.7 43.5a31.98 31.98 0 0 1-6.1.526c-3.532.057-7.062-.134-10.584-.375-3.407-.233-6.863-.32-10.238-.866a18.5 18.5 0 0 1-3.353-.811 10.048 10.048 0 0 0 .976 3.256 18.647 18.647 0 0 0 1.962 3.094 2.3 2.3 0 0 1 .749 1.569 5.149 5.149 0 0 1-.244 1.381 9.731 9.731 0 0 1-1.92 3.35q.644.081 1.332.146h24.944l1.256-.043a5.924 5.924 0 0 1-1.954-2.919c-.694-2.7 1.692-4.31 2.644-6.537a9.026 9.026 0 0 0 .53-1.771z" opacity="1" data-original="#a87a54"></path><path fill="url(#a)" d="M15.479 32.891s-2.942-1.1-4.113 1.086c-1.131 2.112 1.93 10.285 7.768 10.637h28c5.838-.352 8.9-8.525 7.767-10.637-1.171-2.186-4.112-1.086-4.112-1.086z" opacity="1" data-original="url(#a)"></path><path fill="#93d0d8" d="M26.134 52.614h14a8 8 0 0 1 8 8h-30a8 8 0 0 1 8-8z" opacity="1" data-original="#93d0d8"></path><path fill="url(#a)" d="M29.134 45.614h8v6.536a3.464 3.464 0 0 1-3.464 3.464H32.6a3.464 3.464 0 0 1-3.464-3.464v-6.536z" opacity="1" data-original="url(#a)"></path><path fill="#e58989" d="m37.134 51.01-8 1.31v-6.706h8z" opacity="1" data-original="#e58989"></path><path fill="url(#c)" d="M19.994 45.746a60.588 60.588 0 0 1-3.694-9.791 37.177 37.177 0 0 1-1.131-6.984 27.768 27.768 0 0 1 2.143-12.179c2.378-5.144 6.241-9.178 15.8-9.178s13.461 4.034 15.839 9.178A27.76 27.76 0 0 1 51.1 28.971a37.177 37.177 0 0 1-1.131 6.984 60.777 60.777 0 0 1-3.692 9.791c-2.387 5.154-23.9 5.154-26.283 0z" opacity="1" data-original="url(#c)"></path><path fill="url(#a)" d="M48.953 16.792c-2.378-5.144-6.279-9.178-15.839-9.178s-13.422 4.034-15.8 9.178a27.768 27.768 0 0 0-2.143 12.179 37.177 37.177 0 0 0 1.129 6.984c.175.652.365 1.284.561 1.905 2.082-.96 3.275-3.091 3.976-5.3a23.359 23.359 0 0 0 1.091-9.271c-.162-1.422 2.012-1.574 2.394-.324a19.648 19.648 0 0 0 7.433 9.855 20.433 20.433 0 0 0 4.613 2.641c1.241.472 2.61.7 3.542 1.736 2.209 2.445.528 5.91-1.761 7.524-2.849 2.013-6.442 2.279-9.812 1.928a31.61 31.61 0 0 1-5.93-1.025c-.988-.3-1.965-.712-2.954-1.067.186.415.369.817.541 1.189 2.383 5.158 23.9 5.158 26.28 0a60.814 60.814 0 0 0 3.692-9.791 37.177 37.177 0 0 0 1.134-6.984 27.76 27.76 0 0 0-2.147-12.179z" opacity="1" data-original="url(#a)"></path><path fill="#eec99d" d="M24.894 6.492S20.282 3.95 14.259 14.68 8.988 34.915 8.988 34.915l6.491-2.024 5.086-16.7 3.482-.565 3.671-7.812z" opacity="1" data-original="#eec99d" class=""></path><path fill="#d8ae82" d="M22.558 6.348a16.816 16.816 0 0 0-.7 9.627l2.184-.354 3.671-7.812-2.819-1.317a3.519 3.519 0 0 0-2.336-.144zM19.165 10.016c-.8 1.017-1.615 2.02-2.34 3.092a30.111 30.111 0 0 0-2.719 5.238 45.071 45.071 0 0 0-3 11.085 49.913 49.913 0 0 0-.431 4.958l3.836-1.2a43.562 43.562 0 0 1 4.654-23.173z" opacity="1" data-original="#d8ae82" class=""></path><path fill="#eec99d" d="M24.047 15.586s-3.012-3.577-5.647-2.165-4.141 9.318-4.235 12.235a9.245 9.245 0 0 1-7.059 9.13s12.988 4.788 12.988-6.118c0-.376.847-13.835 3.953-13.082z" opacity="1" data-original="#eec99d" class=""></path><path fill="#eec99d" d="m31.2 21.268-7.153-5.647S22.353 3.386 30.353 3.386s24.566 4.471 24.566 30.636c0 0-1.123-2.287-3.959-1.015z" opacity="1" data-original="#eec99d" class=""></path><path fill="#d8ae82" d="M22.763 14.377a3.749 3.749 0 0 0-.878-.225c-1.51-.169-2.427 1.17-2.935 2.4-1.277 3.078-.919 6.571-1.486 9.8a10.111 10.111 0 0 1-4.344 7.129 11.09 11.09 0 0 1-5.331 1.531c2.666.8 12.305 3.059 12.305-6.339 0-.376.847-13.835 3.953-13.082a9.762 9.762 0 0 0-1.284-1.214z" opacity="1" data-original="#d8ae82" class=""></path><path fill="#ffe4c7" d="M24.583 10.836a20.209 20.209 0 0 1 4.378-7.3c-4.74 1-5.154 7.159-5.049 10.278a14.211 14.211 0 0 1 .671-2.978z" opacity="1" data-original="#ffe4c7"></path><path fill="#d8ae82" d="M37.639 4.52a37.88 37.88 0 0 1 4.233 3.468 31.181 31.181 0 0 1 7.307 10.12 37.371 37.371 0 0 1 2.792 11.871c.073.895.109 1.79.131 2.686a2.7 2.7 0 0 1 2.817 1.357c0-19.568-9.263-26.998-17.28-29.502z" opacity="1" data-original="#d8ae82" class=""></path><path fill="#ffe4c7" d="M8.994 34.2a10.513 10.513 0 0 0 3.763-1.75c2.6-2.118 2.8-6.312 3.037-9.355.214-2.7.472-6.864 3.115-8.433a4.3 4.3 0 0 1 4.656.416c-.953-.931-3.166-2.729-5.165-1.658-2.635 1.412-4.141 9.318-4.235 12.235A9.232 9.232 0 0 1 8.3 34.377c.24-.055.473-.114.694-.177z" opacity="1" data-original="#ffe4c7"></path><path fill="#d8ae82" d="M35.807 6.277s11.577 2.259 17.412 18.071l-.753 3.2-.282 3.482-4.424-.659-15.247-18.729a21.016 21.016 0 0 1 10.259 4.518s-4.894-4.988-9.035-7.153c0 0 4.988.847 7.247 2.447a16 16 0 0 0-5.177-5.177z" opacity="1" data-original="#d8ae82" class=""></path><ellipse cx="41.134" cy="35.614" fill="#3b7e7f" rx="1.165" ry="1.553" opacity="1" data-original="#3b7e7f"></ellipse><path fill="#eec99d" d="M24.047 16.562s8.471 26.918 30.4 15.059c0 0-6.871-4.329-9.506-9.788s-8.188-10.165-13.459-8.659c0 0-8.616-2.061-7.435 3.388z" opacity="1" data-original="#eec99d" class=""></path><path fill="#d8ae82" d="M54.345 31.555c-.528.185-1.056.369-1.59.533a12.55 12.55 0 0 1-5.6.494 93.28 93.28 0 0 1-.892-.133c-6.757-2.756-16.008-12.242-16.008-12.242a28.147 28.147 0 0 0 9.694 11.021c-6.339-1.57-7.922-3.358-9.247-4.833-1.639-1.826-3.791-3.74-5.01-5.859 3.393 7 12.272 20 28.756 11.085z" opacity="1" data-original="#d8ae82" class=""></path><path fill="#ffe4c7" d="M27.1 13.86c1.6.316 3.053 1.782 4.682 1.655 1.667-.13 3.011-.676 4.648.069 3.41 1.553 5.18 5.226 7.509 7.942a27.638 27.638 0 0 0 8.351 6.558c-2.244-1.728-5.664-4.755-7.352-8.251-2.635-5.459-8.188-10.165-13.459-8.659 0 0-5.131-1.225-6.929.721a6.362 6.362 0 0 1 2.55-.035z" opacity="1" data-original="#ffe4c7"></path><path fill="#3b7e7f" d="M25.134 34.061c-.643 0-1.165.7-1.165 1.553s.522 1.553 1.165 1.553 1.165-.7 1.165-1.553-.522-1.553-1.165-1.553z" opacity="1" data-original="#3b7e7f"></path><path fill="#e58989" d="M33.055 44.985a6.064 6.064 0 0 1-4.621-1.744l-1.174.934a7.471 7.471 0 0 0 5.795 2.31c2.589 0 4.94-1.01 5.989-2.574l-1.244-.836c-.768 1.143-2.675 1.91-4.745 1.91z" opacity="1" data-original="#e58989"></path><path fill="#c49469" d="m21.29 31.968.38-1.963 6.307 1.22-.38 1.963z" opacity="1" data-original="#c49469"></path></g></svg>