<svg xmlns="http://www.w3.org/2000/svg" version="1.1" xmlns:xlink="http://www.w3.org/1999/xlink" width="512" height="512" x="0" y="0" viewBox="0 0 64 64" style="enable-background:new 0 0 512 512" xml:space="preserve" class=""><g><radialGradient id="a" cx="-60.271" cy="51.746" r="4.123" gradientTransform="matrix(1.333 0 0 1 111.99 0)" gradientUnits="userSpaceOnUse"><stop offset="0" stop-color="#f99"></stop><stop offset="1" stop-color="#f9bca2"></stop></radialGradient><radialGradient xlink:href="#a" id="b" cx="48.136" cy="49.054" r="43.78"></radialGradient><radialGradient id="c" cx="21.529" cy="8.551" r="20.088" gradientTransform="matrix(1.027 0 0 1.03 8.332 6.722)" gradientUnits="userSpaceOnUse"><stop offset="0" stop-color="#fbc8ba"></stop><stop offset="1" stop-color="#fcd0be"></stop></radialGradient><radialGradient xlink:href="#a" id="d" cx="31.629" cy="29.746" r="19.558"></radialGradient><path fill="#c49469" d="M28.236 39.247c-7.458-.434-15.069-1.22-22.262-3.343C8.25 49.636 8.363 56.959 1.035 56.959c0 0 6.353 6.918 16.236 1.694l13.411-.564.44-18.678q-1.449-.08-2.886-.164zM58.306 34.23a21.64 21.64 0 0 0 .04-6.833c-8.656.534-17.559 1.239-26.184.338l1.156 30.354 13.411.564c9.883 5.224 16.236-1.694 16.236-1.694-7.624 0-7.2-7.906-4.659-22.729z" opacity="1" data-original="#c49469"></path><path fill="#93d0d8" d="M24.629 53.746h14a8 8 0 0 1 8 8h-30a8 8 0 0 1 8-8z" opacity="1" data-original="#93d0d8"></path><path fill="url(#a)" d="M27.629 46.746h8v6.536a3.464 3.464 0 0 1-3.464 3.464h-1.072a3.464 3.464 0 0 1-3.464-3.464v-6.536z" opacity="1" data-original="url(#a)"></path><path fill="#e58989" d="m35.629 52.142-8 1.31v-6.706h8z" opacity="1" data-original="#e58989"></path><path fill="url(#a)" d="M13.974 34.023s-2.942-1.1-4.113 1.087c-1.131 2.111 1.929 10.284 7.768 10.636h28c5.838-.352 8.9-8.525 7.767-10.636-1.171-2.186-4.113-1.087-4.113-1.087z" opacity="1" data-original="url(#a)"></path><path fill="url(#c)" d="M18.489 46.878a60.609 60.609 0 0 1-3.692-9.79 37.291 37.291 0 0 1-1.132-6.988 27.777 27.777 0 0 1 2.144-12.179c2.378-5.144 6.241-9.178 15.8-9.178s13.461 4.037 15.839 9.181A27.76 27.76 0 0 1 49.592 30.1a37.209 37.209 0 0 1-1.132 6.985 60.712 60.712 0 0 1-3.691 9.79c-2.384 5.161-23.897 5.161-26.28.003z" opacity="1" data-original="url(#c)"></path><path fill="url(#a)" d="M47.448 17.924c-2.378-5.144-6.279-9.178-15.839-9.178s-13.422 4.034-15.8 9.178A27.777 27.777 0 0 0 13.665 30.1a37.291 37.291 0 0 0 1.135 6.988 60.609 60.609 0 0 0 3.692 9.79c2.383 5.158 23.9 5.158 26.28 0a60.712 60.712 0 0 0 3.691-9.79 37.209 37.209 0 0 0 1.129-6.988 27.76 27.76 0 0 0-2.144-12.176zm-4.57 23.325a6.588 6.588 0 0 1-4.095 5.087 21.471 21.471 0 0 1-6.283 1.447c-2 0-4.094.036-6.071 0a13.909 13.909 0 0 1-4.447-.423 2.351 2.351 0 0 1-1.513-2.541 71.091 71.091 0 0 1 .989-12.25c.34-1.919.824-3.79 1.313-5.674.392-1.508.523-3.08 1-4.568.335-1.057.875-2.382 2-2.792a3 3 0 0 1 1.394-.07 18.837 18.837 0 0 0 2.5-.016 28.662 28.662 0 0 0 3.776-.411 8.267 8.267 0 0 1 3.526-.12c2.052.571 2.5 3.335 2.876 5.1.594 2.789 1.343 5.545 1.877 8.347s1.661 6 1.158 8.884z" opacity="1" data-original="url(#a)"></path><path fill="#c49469" d="M25.459 4.512a11.155 11.155 0 0 1 7.059-2.258A8.122 8.122 0 0 1 39.153 5.5l-4.729 4.1-6 .07z" opacity="1" data-original="#c49469"></path><path fill="#d8ae82" d="M31.6 7.124S28.847 4.3 23.341 4.3c-2.531 0-7 3.2-10.844 8.086 0 0 8.463 4.923 14.274 4.923.943 0 4.154-.058 4.875-.152l.043-1.845z" opacity="1" data-original="#d8ae82"></path><path fill="#d8ae82" d="M52.739 14.053C48.66 8.234 43.46 3.92 40.654 3.807 31.9 3.454 31.6 7.124 31.6 7.124l.089 8.189.064 1.678h.054a3.784 3.784 0 0 1 1.6.33 35.03 35.03 0 0 1 5.063-.309z" opacity="1" data-original="#d8ae82"></path><path fill="#c49469" d="m42.259 16.724-11.059.847-10.541-.423s2.182-6.365 3.548-7.059c1.6-.814 2.707 4.024 7.129 4.024 4.53 0 5.125-4.1 6.777-3.388 1.334.575 4.146 5.999 4.146 5.999z" opacity="1" data-original="#c49469"></path><path fill="#eec99d" d="M31.2 17.571s-1.318-4.235-4.329-3.859S15.03 35.219 20.847 56.63c0 0-8.659-4.141-9.318-19.859A34.14 34.14 0 0 0 12.565 50.7s-7.911-7.054-7.911-20.493c0-22.376 19.77-23.365 20.9-23.271s5.364 1.976 5.646 10.635zM31.576 17.571s1.318-4.235 4.33-3.859 13.082 21.836 6.023 42.918c0 0 8.659-4.141 9.318-19.859A34.149 34.149 0 0 1 50.212 50.7s8.371-5.9 8.371-19.34c0-25.2-18.865-24.448-21.359-24.424-1.134.011-5.365 1.976-5.648 10.635z" opacity="1" data-original="#eec99d"></path><g fill="#d8ae82"><path d="M12.6 15.162a40.583 40.583 0 0 0-3.94 10.685c-1.377 6.094-1.539 12.623.477 18.538-.237-1.885-.437-3.771-.521-5.667a50.712 50.712 0 0 1 4.066-22.411 56.222 56.222 0 0 1 2.67-5.462 44.758 44.758 0 0 0-2.752 4.317zM20.241 11.32a45.59 45.59 0 0 0-3.277 5.4 43.326 43.326 0 0 0-4.007 12.05 47.554 47.554 0 0 0-.018 16.741 23.762 23.762 0 0 0 2.661 5.877c-.24-.891-.45-1.79-.611-2.691A63.335 63.335 0 0 1 17.8 16.9a46.736 46.736 0 0 1 2.441-5.58z" fill="#d8ae82" opacity="1" data-original="#d8ae82"></path><path d="M29.431 10.8c-1.086-.884-3.031-2.516-4.571-1.911-.926.364-1.353 1.44-1.749 2.268-.5 1.046-1.065 2.059-1.571 3.1a45.262 45.262 0 0 0-2.8 7.829 60.375 60.375 0 0 0-2.148 15.694A53.665 53.665 0 0 0 17.6 49.374a19.79 19.79 0 0 0 2.787 6.995c.287.178.457.261.457.261-5.817-21.411 3.012-42.541 6.024-42.918s4.332 3.859 4.332 3.859a17.642 17.642 0 0 0-1.209-6.287c-.186-.162-.369-.327-.56-.484zM48.059 12.125a19.054 19.054 0 0 0-2.012-2.8 67.591 67.591 0 0 0-2.984-.569c-.384-.066-.782-.139-1.186-.208.222.291.445.582.66.885A51.856 51.856 0 0 1 52.1 33.648a54.932 54.932 0 0 1 .334 8.433c1.622-6.231 1.179-12.922-.259-19.165a40.081 40.081 0 0 0-4.116-10.791z" fill="#d8ae82" opacity="1" data-original="#d8ae82"></path><path d="M46.207 18.419c-1.553-3.812-3.812-7.574-6.777-9.741-1.43-1.045-3.719-.028-4.811 1.061a10.293 10.293 0 0 0-2.492 4.894 5.505 5.505 0 0 1 3.419-2.352c4.4-.707 6.366 6.642 7.6 9.855 1.71 4.449 2.958 8.235 3.192 12.972.247 5 .291 10.158-1.093 15a42.316 42.316 0 0 1-2.181 5.794 19.17 19.17 0 0 0 6.4-9.282 25.972 25.972 0 0 0 .414-2.613 54.851 54.851 0 0 0-3.671-25.588zM51 11.2c-.336-.2-.676-.4-1.027-.575a27.211 27.211 0 0 1 1.312 2.417 48.487 48.487 0 0 1 4.473 24.179A31.247 31.247 0 0 1 52.82 48.17a25.453 25.453 0 0 0 5.763-16.81c0-10.766-3.445-16.785-7.583-20.16z" fill="#d8ae82" opacity="1" data-original="#d8ae82"></path></g><ellipse cx="8.254" cy="20.43" fill="#ffe4c7" rx="3.565" ry=".918" transform="rotate(-74.1 8.248 20.423)" opacity="1" data-original="#ffe4c7"></ellipse><ellipse cx="12.771" cy="20.925" fill="#ffe4c7" rx="3.565" ry=".918" transform="rotate(-71.46 12.764 20.923)" opacity="1" data-original="#ffe4c7"></ellipse><ellipse cx="15.192" cy="14.813" fill="#ffe4c7" rx="1.635" ry=".918" transform="rotate(-69.57 15.196 14.816)" opacity="1" data-original="#ffe4c7"></ellipse><path fill="#3b7e7f" d="M23.629 35.194c-.644 0-1.165.7-1.165 1.552s.521 1.553 1.165 1.553 1.164-.7 1.164-1.553-.521-1.552-1.164-1.552zM39.629 38.3c.643 0 1.164-.7 1.164-1.553s-.521-1.552-1.164-1.552-1.165.7-1.165 1.552.521 1.553 1.165 1.553z" opacity="1" data-original="#3b7e7f"></path><path fill="#e58989" d="M31.55 46.117a6.061 6.061 0 0 1-4.621-1.744l-1.174.934a7.473 7.473 0 0 0 5.8 2.31c2.59 0 4.94-1.01 5.989-2.573l-1.246-.836c-.771 1.142-2.677 1.909-4.748 1.909z" opacity="1" data-original="#e58989"></path><g fill="#c49469"><path d="m19.806 33.124.382-1.964 6.307 1.227-.382 1.963zM36.781 32.404l6.308-1.22.38 1.963-6.308 1.22z" fill="#c49469" opacity="1" data-original="#c49469"></path></g></g></svg>