<svg xmlns="http://www.w3.org/2000/svg" version="1.1" xmlns:xlink="http://www.w3.org/1999/xlink" width="512" height="512" x="0" y="0" viewBox="0 0 64 64" style="enable-background:new 0 0 512 512" xml:space="preserve" class=""><g><radialGradient id="a" cx="3.008" cy="52" r="4.123" gradientTransform="matrix(1.333 0 0 1 27.99 0)" gradientUnits="userSpaceOnUse"><stop offset="0" stop-color="#f99"></stop><stop offset="1" stop-color="#f9bca2"></stop></radialGradient><radialGradient xlink:href="#a" id="b" cx="52.325" cy="52.912" r="43.585"></radialGradient><radialGradient id="c" cx="28.621" cy="3.888" r="20.088" gradientTransform="matrix(1.027 0 0 1.03 1.416 11.778)" gradientUnits="userSpaceOnUse"><stop offset="0" stop-color="#fbc8ba"></stop><stop offset="1" stop-color="#fcd0be"></stop></radialGradient><radialGradient xlink:href="#a" id="d" cx="62.489" cy="4.818" r="53.535"></radialGradient><path fill="#eec99d" d="M13.831 17.054s-17.506 7.811-3.953 18.823c0 0-6.871-11.482 3.67-13.647 0 0 5.177-1.976 4.142-4.988s-3.859-.188-3.859-.188z" opacity="1" data-original="#eec99d"></path><path fill="#d8ae82" d="M17.69 17.242c-1.036-3.012-3.859-.188-3.859-.188a22.079 22.079 0 0 0-2.4 1.317c-.811 1.142-1.253 1.91-1.835 2.824-.716 1.126-1.393 1.782-2.047 2.976a10.4 10.4 0 0 0-1.164 4.271c-.111 2.732 1.493 5.442 3.447 7.354-.562-.979-6.331-11.5 3.717-13.566-.001 0 5.176-1.976 4.141-4.988z" opacity="1" data-original="#d8ae82"></path><path fill="#93d0d8" d="M25 54h14a8 8 0 0 1 8 8H17a8 8 0 0 1 8-8z" opacity="1" data-original="#93d0d8"></path><path fill="url(#a)" d="M28 47h8v6.536A3.464 3.464 0 0 1 32.536 57h-1.072A3.464 3.464 0 0 1 28 53.536V47z" opacity="1" data-original="url(#a)"></path><path fill="#e58989" d="m36 52.396-8 1.31V47h8z" opacity="1" data-original="#e58989"></path><path fill="url(#a)" d="M14.345 34.276s-2.941-1.1-4.113 1.087C9.1 37.474 12.162 45.648 18 46h28c5.838-.352 8.9-8.526 7.768-10.637-1.172-2.186-4.113-1.087-4.113-1.087z" opacity="1" data-original="url(#a)"></path><path fill="url(#c)" d="M18.86 47.132a60.814 60.814 0 0 1-3.692-9.791 37.186 37.186 0 0 1-1.131-6.985 27.764 27.764 0 0 1 2.143-12.178C18.559 13.034 22.421 9 31.981 9s13.46 4.034 15.839 9.178a27.764 27.764 0 0 1 2.143 12.178 37.186 37.186 0 0 1-1.131 6.985 60.814 60.814 0 0 1-3.692 9.791c-2.383 5.157-23.897 5.157-26.28 0z" opacity="1" data-original="url(#c)"></path><path fill="url(#a)" d="M47.82 18.178C45.441 13.034 41.54 9 31.981 9s-13.422 4.034-15.8 9.178a27.764 27.764 0 0 0-2.143 12.178 37.186 37.186 0 0 0 1.131 6.985c.025.093.053.182.079.275a15.2 15.2 0 0 0 5.985 2.574 13.778 13.778 0 0 1-3.238-4.907c-.292-.8.729-1.485 1.4-1.076a20.09 20.09 0 0 0 5.582 2.734 18.634 18.634 0 0 1-3.251-8.876.962.962 0 0 1 1.627-.673 24.6 24.6 0 0 0 4.984 4.739 23.029 23.029 0 0 0 7.019 2.545c1.1.249 2.359.34 3.214 1.172a4.525 4.525 0 0 1 .96 3.482c-.139 3.314-1.529 6.487-4.522 7.841a16.669 16.669 0 0 1-6.588 1.13c-2.184-.056-4.124-.26-6.306-.377-1.041-.056-2.222-.624-3.252-.791 2.386 5.156 23.9 5.156 26.279 0a60.814 60.814 0 0 0 3.692-9.791 37.186 37.186 0 0 0 1.131-6.985 27.764 27.764 0 0 0-2.144-12.179z" opacity="1" data-original="url(#a)"></path><path fill="#eec99d" d="M28.7 16.3s6.627 3.9 9.413 9.7c0 0 .941-7.247-5.929-13.93" opacity="1" data-original="#eec99d"></path><path fill="#c49469" d="m20.157 33.354.38-1.963 6.307 1.22-.38 1.963zM37.153 32.658l6.307-1.22.38 1.963-6.307 1.22z" opacity="1" data-original="#c49469"></path><path fill="#eec99d" d="M15.054 15.83S-.381 29.289 20.043 39.454c0 0-5.177-5.459-4.142-11.294a9.319 9.319 0 0 0 7.624 6.4s-6.025-3.483-.565-12.518c0 0 2.684-4.7-3.012-7.718-3.2-1.694-4.894 1.506-4.894 1.506z" opacity="1" data-original="#eec99d"></path><path fill="#d8ae82" d="M18.319 21.123a.968.968 0 0 1 .7.919A13.353 13.353 0 0 0 19.4 27.4a11.767 11.767 0 0 0 1.392 2.888c-.352-1.965.006-4.668 2.167-8.245 0 0 2.684-4.7-3.012-7.718-3.2-1.694-4.894 1.506-4.894 1.506a16.521 16.521 0 0 0-1.2 1.212 8.475 8.475 0 0 0 4.466 4.08zM17.048 23.289a13.251 13.251 0 0 0-1.028 5.225 9.38 9.38 0 0 0 5.563 5.571 16.066 16.066 0 0 1-1.873-2.049 13.806 13.806 0 0 1-2.147-4.13 13.009 13.009 0 0 1-.515-4.617z" opacity="1" data-original="#d8ae82"></path><path fill="#ffe4c7" d="M11.977 30.945a19.214 19.214 0 0 1 .395-12.069C9.269 23.185 6 31.311 17.853 38.26c-2.58-1.912-4.913-4.045-5.876-7.315z" opacity="1" data-original="#ffe4c7"></path><path fill="#eec99d" d="M19.76 20.16s3.2 1.6 4.33 3.764 8.47 9.6 18.164 10.259a31.853 31.853 0 0 1-6.588-6.306s8.565 4.612 9.694 5.459-3.012-6.118-4.894-7.435c0 0 8.941 2.164 9.788 14.682 0 0 3.859-2.635 2.636-10.918a8.81 8.81 0 0 1 2.258 4.518s3.294-8.565-3.576-13.835c0 0 4.329 1.412 8-.377a37.775 37.775 0 0 1-9.882-6.682c-4.706-4.8-27.106-16.471-34.636 2.541 0 0-.564 2.353 4.706 4.33z" opacity="1" data-original="#eec99d"></path><g fill="#d8ae82"><path d="M40.59 33.928a14.658 14.658 0 0 1-2.335-.69 28.01 28.01 0 0 1-6.9-4.484 49.91 49.91 0 0 1-3.173-2.963 46.583 46.583 0 0 0-5.9-3.954 7.266 7.266 0 0 1 1.8 2.087c1.091 2.076 7.894 8.983 16.999 10.128-.164-.04-.327-.084-.491-.124zM35.666 27.877s7.32 3.942 9.311 5.2c-1.481-2.069-3.776-3.3-5.935-4.619a40.668 40.668 0 0 1-7.321-5.15 13.633 13.633 0 0 0 3.945 4.569zM54.913 27.03c.639 1.605.6 5.894.6 5.894.616-2.573 1.318-8.539-3.945-12.576a13.22 13.22 0 0 0 3.146.51 14.152 14.152 0 0 1-5.988-3.065c2.705 4.296 3.928 3.567 6.187 9.237zM49.219 26.183a32.125 32.125 0 0 1 1.81 7.388A16.515 16.515 0 0 1 51 39.856c.944-1.13 2.415-3.692 2.077-8.472-.089-1.013-.183-1.719-.183-1.719a49.226 49.226 0 0 0-4.81-7.586 31.109 31.109 0 0 0-2.174-2.558 43.792 43.792 0 0 1 3.309 6.662zM49.016 33.172a16.777 16.777 0 0 0-3.632-6.989c-1.906-2.294-7.094-3.459-8.318-3.407l3.4 3.125c.08.062.739.218.818.281 1.813.719 6.188 3.067 8.107 9.478a16.675 16.675 0 0 0-.375-2.488z" fill="#d8ae82" opacity="1" data-original="#d8ae82"></path><path d="M20.984 16.3s6.617-3.928 10.494-1.765c5.694 3.177 11.835 9.388 16.447 9.671l-6.235-7.623S31.242 9.9 28.89 10.089s-6.5 2.824-6.5 2.824z" fill="#d8ae82" opacity="1" data-original="#d8ae82"></path></g><path fill="#eec99d" d="M20.984 16.3s3.576-7.153 10.729-4.33 6.587 8.66 18.259 13.554c0 0-6.965-8.659-9.035-13.364S28.7-1.958 21.172 10.089z" opacity="1" data-original="#eec99d"></path><path fill="#ffe4c7" d="M22.4 8.99c2.17-2.409 5.726-3.906 8.938-3.078 3.531.91 5.845 3.942 8.1 6.568a45.169 45.169 0 0 1 3.765 4.9 26.285 26.285 0 0 0 3.714 4.63c.366.357.745.7 1.131 1.031-2.219-2.919-5.736-7.765-7.108-10.885-2.074-4.702-12.24-14.114-19.768-2.067L20.36 11.5a19.97 19.97 0 0 1 2.04-2.51z" opacity="1" data-original="#ffe4c7"></path><ellipse cx="13.887" cy="21.912" fill="#ffe4c7" rx="1.926" ry="1.193" transform="rotate(-81.78 13.882 21.906)" opacity="1" data-original="#ffe4c7"></ellipse><path fill="#ffe4c7" d="M19.725 19.72a10.642 10.642 0 0 1-1.269-7.673 10.881 10.881 0 0 1 1.663-3.493 17.392 17.392 0 0 0-5.065 7.276s-.564 2.353 4.706 4.33c0 0 .138.069.359.193-.129-.212-.275-.413-.394-.633z" opacity="1" data-original="#ffe4c7"></path><path fill="#3b7e7f" d="M24 35.447c-.643 0-1.165.7-1.165 1.553s.522 1.553 1.165 1.553 1.165-.7 1.165-1.553-.522-1.553-1.165-1.553zM40 35.447c-.643 0-1.165.7-1.165 1.553s.522 1.553 1.165 1.553 1.165-.7 1.165-1.553-.522-1.553-1.165-1.553z" opacity="1" data-original="#3b7e7f"></path><path fill="#e58989" d="M31.921 46.371a6.064 6.064 0 0 1-4.621-1.744l-1.174.934a7.474 7.474 0 0 0 5.795 2.31c2.589 0 4.94-1.011 5.989-2.574l-1.246-.836c-.764 1.139-2.672 1.91-4.743 1.91z" opacity="1" data-original="#e58989"></path></g></svg>