<svg xmlns="http://www.w3.org/2000/svg" version="1.1" xmlns:xlink="http://www.w3.org/1999/xlink" width="512" height="512" x="0" y="0" viewBox="0 0 64 64" style="enable-background:new 0 0 512 512" xml:space="preserve" class=""><g><radialGradient id="a" cx="-39.25" cy="52.267" r="4.123" gradientTransform="matrix(1.333 0 0 1 83.99 0)" gradientUnits="userSpaceOnUse"><stop offset="0" stop-color="#f99"></stop><stop offset="1" stop-color="#f9bca2"></stop></radialGradient><radialGradient xlink:href="#a" id="b" cx="43.76" cy="57.807" r="57.017"></radialGradient><radialGradient id="c" cx="24.824" cy="30.705" r="14.548" gradientTransform="matrix(1.027 0 0 1.03 6.027 1.666)" gradientUnits="userSpaceOnUse"><stop offset="0" stop-color="#fbc8ba"></stop><stop offset="1" stop-color="#fcd0be"></stop></radialGradient><radialGradient xlink:href="#a" id="d" cx="79.619" cy="-10.522" r="64.072"></radialGradient><path fill="#eec99d" d="M11.812 34.3s-.659-6.212-3.106-9.789l1.976.094s-.658-4.329-1.694-5.741l2.165.189s-.471-1.318.188-5.365l1.6 1.129s.847-3.764 1.13-4.611l1.694 1.411s.564-4.047 1.6-5.553l1.882 1.224L20.941 3.8l1.694 2.258s1.506-3.482 2.541-4.141l.942 2.635 2.07-2.823 1.977 3.106 2.917-2.918 1.412 3.106L37.129 2.2 39.2 6.062l1.506-2.447a26.376 26.376 0 0 1 1.6 3.765l1.506-1.788a20.519 20.519 0 0 1 1.412 4.708 9.294 9.294 0 0 1 2.447-1.977 42.807 42.807 0 0 0 .564 5.365l1.506-2.635a20.817 20.817 0 0 1 .941 4.988l1.789-1.224a29.585 29.585 0 0 1-.377 6.965l2.259-.659a45.853 45.853 0 0 1-2.071 6.588 8.2 8.2 0 0 1 3.012-.941 30.735 30.735 0 0 0-3.106 7.624s-2.264 3.556-4.24 1.3l-33.176.235s-1.365.471-2.96-1.629z" opacity="1" data-original="#eec99d"></path><path fill="#93d0d8" d="M24.657 54.267h14a8 8 0 0 1 8 8h-30a8 8 0 0 1 8-8z" opacity="1" data-original="#93d0d8"></path><path fill="url(#a)" d="M27.657 47.267h8V53.8a3.464 3.464 0 0 1-3.464 3.464h-1.072a3.464 3.464 0 0 1-3.464-3.464v-6.533z" opacity="1" data-original="url(#a)"></path><path fill="#e58989" d="m35.657 52.804-8 1.31v-6.847h8z" opacity="1" data-original="#e58989"></path><path fill="url(#a)" d="M14 34.543s-2.942-1.1-4.113 1.087c-1.131 2.111 1.929 10.285 7.768 10.637h28c5.838-.352 8.9-8.526 7.767-10.637-1.171-2.186-4.113-1.087-4.113-1.087z" opacity="1" data-original="url(#a)"></path><path fill="url(#c)" d="M18.517 47.4a60.625 60.625 0 0 1-3.692-9.791 37.186 37.186 0 0 1-1.131-6.985 27.764 27.764 0 0 1 2.143-12.178c2.378-5.144 6.241-9.178 15.8-9.178S45.1 13.3 47.476 18.445a27.756 27.756 0 0 1 2.144 12.178 37.186 37.186 0 0 1-1.131 6.985A60.814 60.814 0 0 1 44.8 47.4c-2.387 5.156-23.9 5.156-26.283 0z" opacity="1" data-original="url(#c)"></path><path fill="url(#a)" d="M47.476 18.445C45.1 13.3 41.2 9.267 31.637 9.267s-13.422 4.034-15.8 9.178a27.764 27.764 0 0 0-2.143 12.178 36.446 36.446 0 0 0 .691 5.11c.009-.17.012-.341.028-.51a21.761 21.761 0 0 1 2.028-8 8.953 8.953 0 0 1 2.311-3.1 6.731 6.731 0 0 1 1.034-.607l.063-.038c-.246-1.3 1.493-2.026 2.539-1.556 2.582 1.161 5.573 1.028 8.327.8 2.875-.24 5.732-.719 8.621-.743A1.7 1.7 0 0 1 41 23.643c.153 1.914 1.365 3.656 1.984 5.439A21.752 21.752 0 0 1 43.9 35.3a12.239 12.239 0 0 1-2.847 8.873 16.692 16.692 0 0 1-8.528 4.849 28.163 28.163 0 0 1-12.882-.322c5.081 3.813 22.991 3.38 25.154-1.3a60.814 60.814 0 0 0 3.692-9.791 37.186 37.186 0 0 0 1.131-6.985 27.756 27.756 0 0 0-2.144-12.179z" opacity="1" data-original="url(#a)"></path><path fill="#4c443d" d="M11.812 34.3s-.659-6.212-3.106-9.789l1.976.094s-.658-4.329-1.694-5.741l2.165.189s-.471-1.318.188-5.365l1.6 1.129s.847-3.764 1.13-4.611l1.694 1.411s.564-4.047 1.6-5.553l1.882 1.224L20.941 3.8l1.694 2.258s1.506-3.482 2.541-4.141l.942 2.635 2.07-2.823 1.977 3.106 2.917-2.918 1.412 3.106L37.129 2.2 39.2 6.062l1.506-2.447a26.376 26.376 0 0 1 1.6 3.765l1.506-1.788a20.519 20.519 0 0 1 1.412 4.708 9.294 9.294 0 0 1 2.447-1.977 42.807 42.807 0 0 0 .564 5.365l1.506-2.635a20.817 20.817 0 0 1 .941 4.988l1.789-1.224a29.585 29.585 0 0 1-.377 6.965l2.259-.659a45.853 45.853 0 0 1-2.071 6.588 8.2 8.2 0 0 1 3.012-.941 30.735 30.735 0 0 0-3.106 7.624 5.588 5.588 0 0 0-2.877.151s-1.076-12.1-5.245-12.951l2-2.636S36.155 21 31.637 21c0 0-9.1-.16-13.8-2.231l.941 2.824S13.651 25.189 14 34.543a3.707 3.707 0 0 0-2.188-.243z" opacity="1" data-original="#4c443d" class=""></path><path fill="#3d352f" d="M52.282 27.709a45.853 45.853 0 0 0 2.071-6.588l-2.259.659a29.585 29.585 0 0 0 .377-6.965l-1.789 1.224a20.817 20.817 0 0 0-.941-4.988l-1.506 2.635a42.807 42.807 0 0 1-.564-5.365 9.294 9.294 0 0 0-2.447 1.979 20.519 20.519 0 0 0-1.412-4.706L42.306 7.38a26.376 26.376 0 0 0-1.6-3.765L39.2 6.062 37.129 2.2s1.562 5.872 1.647 6.164l1.506-1.784a20.464 20.464 0 0 1 1.412 4.706s1.078-2.138 1.925-3.5c0 0 .941 3.859 1.317 5.364l1.788-2.776s.335 4.208.429 6.655l1.788-1.229a34.2 34.2 0 0 1-.146 8.215l2.259-4.515s-.894 5.883-2.024 8.424a22.7 22.7 0 0 0 3.153-2.871s-2.038 5.507-3 8.377c.088.691.125 1.112.125 1.112a5.588 5.588 0 0 1 2.877-.151 30.735 30.735 0 0 1 3.106-7.624 8.2 8.2 0 0 0-3.009.942z" opacity="1" data-original="#3d352f"></path><path fill="#3d352f" d="M43.854 18.607c-11.388 1.741-13.459 2.071-24.377-.259-1.886-.4-3.755-1.081-5.642-1.55.12.235.242.47.348.713.486 1.107 2.376 2.982 1.765 4.155-.553 1.063-1.924 2.657-2.329 3.812a18.785 18.785 0 0 0-1.3 8.263c.011.161.03.321.042.482a4.16 4.16 0 0 1 1.642.32c-.351-9.354 4.774-12.951 4.774-12.951l-.941-2.824C22.541 20.839 31.637 21 31.637 21c3.991 0 12.189-1.593 14.048-1.965.756-.8.811-.7 1.6-1.462a11.558 11.558 0 0 1-3.431 1.034z" opacity="1" data-original="#3d352f"></path><g fill="#68605a"><path d="M16.748 12.113a12.687 12.687 0 0 1 .852-4.847s.565 4.824.894 5.93zM14.3 11.548l-.894 3.483 1.412 1.082s-.564-3.765-.518-4.565zM12.042 19.643a12.842 12.842 0 0 1-.47-4.33 36.857 36.857 0 0 0 1.317 4.8zM11.2 24.725s-.423-4.141-1.318-5.271c0 0 1.883 1.694 2.306 5.6zM20.23 13.784a10.571 10.571 0 0 1 .518-3.694s.353 3.294.706 4.894zM24.936 2.7a13.479 13.479 0 0 0-1.976 4.049l.753 1.035s.4-1.53 1.223-5.084zM28 2.466l-2.311 4.141 1.271 1.412A37.477 37.477 0 0 1 28 2.466zM20.936 4.631 19.43 7.784l1.553 1.365s-.583-1.318-.047-4.518z" fill="#68605a" opacity="1" data-original="#68605a" class=""></path></g><path fill="#4c443d" d="M36.749 48.618c0 1.593-2.276 1.74-5.084 1.74s-5.083-.147-5.083-1.74l-1.012 4.419 1.367 1.745 2.392-1.007 2.264 1.632 2.392-1.632 2.392 1.007 1.367-1.745z" opacity="1" data-original="#4c443d" class=""></path><path fill="#3d352f" d="M36.749 48.618a1.238 1.238 0 0 1-.188.649l.477 2.311-1.367 1.745-2.392-1.006-2.392 1.631-2.264-1.631-2.392 1.006-.556-.709-.105.423 1.367 1.745 2.392-1.007 2.264 1.632 2.392-1.632 2.392 1.007 1.367-1.745z" opacity="1" data-original="#3d352f"></path><path fill="#68605a" d="m24.136 16.16 1.6.659a20.081 20.081 0 0 1-.235-3.765 8.887 8.887 0 0 0-1.365 3.106z" opacity="1" data-original="#68605a" class=""></path><path fill="#3d352f" d="M24.3 31.815c-.994 0-1.8 1.18-1.8 2.636s.8 2.635 1.8 2.635 1.8-1.18 1.8-2.635-.81-2.636-1.8-2.636zM39.017 31.815c-.994 0-1.8 1.18-1.8 2.636s.8 2.635 1.8 2.635 1.8-1.18 1.8-2.635-.806-2.636-1.8-2.636z" opacity="1" data-original="#3d352f"></path><path fill="#e58989" d="M31.582 45.973a5.7 5.7 0 0 1-4.341-1.635l-1.174.934a7.111 7.111 0 0 0 5.515 2.2c2.462 0 4.7-.963 5.7-2.453l-1.246-.836c-.718 1.071-2.508 1.79-4.454 1.79z" opacity="1" data-original="#e58989"></path><g fill="#4c443d"><path d="m25.928 31.142 1.22-.872a4.728 4.728 0 0 0-3.715-1.8 3.906 3.906 0 0 0-3.5 1.966l1.342.672a2.394 2.394 0 0 1 2.154-1.138 3.213 3.213 0 0 1 2.499 1.172zM39.861 28.474a4.728 4.728 0 0 0-3.715 1.8l1.22.872a3.263 3.263 0 0 1 2.495-1.168 2.416 2.416 0 0 1 2.158 1.145l1.337-.678a3.9 3.9 0 0 0-3.495-1.971z" fill="#4c443d" opacity="1" data-original="#4c443d" class=""></path></g></g></svg>