<svg xmlns="http://www.w3.org/2000/svg" version="1.1" xmlns:xlink="http://www.w3.org/1999/xlink" width="512" height="512" x="0" y="0" viewBox="0 0 64 64" style="enable-background:new 0 0 512 512" xml:space="preserve" class=""><g><radialGradient id="a" cx="3.008" cy="48.5" r="4.123" gradientTransform="matrix(1.333 0 0 1 27.99 0)" gradientUnits="userSpaceOnUse"><stop offset="0" stop-color="#f99"></stop><stop offset="1" stop-color="#f9bca2"></stop></radialGradient><radialGradient xlink:href="#a" id="b" cx="50.537" cy="41.713" r="24.422"></radialGradient><radialGradient id="c" cx="28.706" cy="7.853" r="20.318" gradientTransform="matrix(1.027 0 0 1.03 1.416 4.194)" gradientUnits="userSpaceOnUse"><stop offset="0" stop-color="#fbc8ba"></stop><stop offset="1" stop-color="#fcd0be"></stop></radialGradient><radialGradient xlink:href="#a" id="d" cx="35.044" cy="27" r="18.377"></radialGradient><path fill="#827b75" d="M16.654 11.437a7.8 7.8 0 0 0 3.953 6.211s0 11.217-5.223 16.347c0 0-2.683-1.553-3.059-3.453a19.613 19.613 0 0 1 4.329-19.105zM47.4 11.437a7.8 7.8 0 0 1-3.953 6.211s.737 9.711 5.957 14.841a3.252 3.252 0 0 0 2.326-1.947 19.614 19.614 0 0 0-4.33-19.105z" opacity="1" data-original="#827b75"></path><path fill="#93d0d8" d="M25 50.5h14a8 8 0 0 1 8 8H17a8 8 0 0 1 8-8z" opacity="1" data-original="#93d0d8"></path><path fill="url(#a)" d="M28 43.5h8v6.536a3.464 3.464 0 0 1-3.464 3.464h-1.072A3.464 3.464 0 0 1 28 50.036V43.5z" opacity="1" data-original="url(#a)" class=""></path><path fill="#e58989" d="m36 48.896-8 1.31V43.5h8z" opacity="1" data-original="#e58989"></path><path fill="url(#a)" d="M14.345 30.776s-2.941-1.1-4.113 1.087C9.1 33.974 12.162 42.148 18 42.5h28c5.838-.352 8.9-8.526 7.768-10.637-1.172-2.186-4.113-1.087-4.113-1.087z" opacity="1" data-original="url(#a)" class=""></path><path fill="url(#c)" d="M18.86 43.632a60.814 60.814 0 0 1-3.692-9.791 37.186 37.186 0 0 1-1.131-6.985s-2.068-6.472.57-12.178C16.985 9.534 22.421 5.5 31.981 5.5s15.448 4.457 17.826 9.6c2.639 5.706.156 11.755.156 11.755a37.186 37.186 0 0 1-1.131 6.985 60.814 60.814 0 0 1-3.692 9.791c-2.383 5.158-23.897 5.158-26.28.001z" opacity="1" data-original="url(#c)" class=""></path><path fill="url(#a)" d="M49.807 15.1a16.407 16.407 0 0 0-10.575-8.6c7.493 10.717 7.245 25.5-1.119 34.152-5.646 5.841-13.013 5.183-19.046 3.328 3.177 4.8 23.745 4.689 26.073-.348a60.814 60.814 0 0 0 3.692-9.791 37.186 37.186 0 0 0 1.131-6.985s2.483-6.049-.156-11.756z" opacity="1" data-original="url(#a)" class=""></path><g fill="none"><path d="M17.407 13.507s6.118-9.317 22.024-4.423" fill="" opacity="1"></path><path d="M18.348 15.2s6.777-8.563 21.552-2.728" fill="" opacity="1"></path><path d="M19.666 16.707s5.066-5.094 16.847-2.541" fill="" opacity="1"></path></g><path fill="#827b75" d="M47.4 11.437a7.8 7.8 0 0 1-3.953 6.211s.878 8.017 6.1 13.147a3.49 3.49 0 0 1 2.185-.253A19.614 19.614 0 0 0 47.4 11.437z" opacity="1" data-original="#827b75"></path><path fill="#827b75" d="M16.654 11.437a7.8 7.8 0 0 0 3.953 6.211s-.885 7.993-6.106 13.124a4.476 4.476 0 0 0-2.176-.23 19.613 19.613 0 0 1 4.329-19.105z" opacity="1" data-original="#827b75"></path><path fill="#68615d" d="M19.18 16.621c-.123.217-.249.432-.372.642-.572.984-3.368 5.244-4.174 6.25a16.336 16.336 0 0 1-3.1 2.957 17.625 17.625 0 0 0 .794 4.072 4.476 4.476 0 0 1 2.176.23c5.221-5.131 6.106-13.124 6.106-13.124a7.773 7.773 0 0 1-1.43-1.027zM47.4 11.437v.066a7.828 7.828 0 0 1-3.447 5.83 29.544 29.544 0 0 1 .642 5.116 21.214 21.214 0 0 0 4.905 8.294c.017.017.031.036.048.052a3.49 3.49 0 0 1 2.185-.253A19.614 19.614 0 0 0 47.4 11.437z" opacity="1" data-original="#68615d"></path><ellipse cx="22.981" cy="18.982" fill="#ffe9e1" rx="1.544" ry="1.252" transform="rotate(-39.65 22.995 18.989)" opacity="1" data-original="#ffe9e1"></ellipse><path fill="#3d352f" d="M24 31.947c-.643 0-1.165.7-1.165 1.553s.522 1.553 1.165 1.553 1.165-.7 1.165-1.553-.522-1.553-1.165-1.553zM40 31.947c-.643 0-1.165.7-1.165 1.553s.522 1.553 1.165 1.553 1.165-.7 1.165-1.553-.522-1.553-1.165-1.553z" opacity="1" data-original="#3d352f"></path><path fill="#e58989" d="M31.921 42.871a6.064 6.064 0 0 1-4.621-1.744l-1.174.934a7.471 7.471 0 0 0 5.795 2.31c2.589 0 4.94-1.01 5.989-2.574l-1.246-.836c-.764 1.139-2.672 1.91-4.743 1.91z" opacity="1" data-original="#e58989"></path><path fill="#68615d" d="M23.859 29.974a3.211 3.211 0 0 1 2.495 1.168l1.221-.872a4.733 4.733 0 0 0-3.716-1.8 3.9 3.9 0 0 0-3.5 1.967l1.342.671a2.39 2.39 0 0 1 2.158-1.134zM40.141 29.974a2.417 2.417 0 0 1 2.159 1.145l1.338-.678a3.9 3.9 0 0 0-3.5-1.967 4.733 4.733 0 0 0-3.716 1.8l1.221.872a3.258 3.258 0 0 1 2.498-1.172z" opacity="1" data-original="#68615d"></path><path fill="#827b75" d="m17.022 14.3-1.208-.89a16.324 16.324 0 0 1 5.822-4.453c3.555-1.7 9.568-3.189 18.015-.59L39.21 9.8c-15.167-4.665-21.91 4.124-22.188 4.5z" opacity="1" data-original="#827b75"></path><path fill="#827b75" d="m18.26 16.336-1.189-.915a15.677 15.677 0 0 1 5.761-4.214c3.47-1.543 9.259-2.73 17.133.379l-.551 1.395C25.373 7.434 18.543 15.97 18.26 16.336z" opacity="1" data-original="#827b75"></path><path fill="#68615d" d="m20.1 18.292-1.146-.967c.224-.268 5.635-6.511 17.721-3.892l-.321 1.467C25.2 12.48 20.3 18.053 20.1 18.292z" opacity="1" data-original="#68615d"></path><g fill="#aa264c"><path d="M29.96 31.25h4.181v1.5H29.96zM11.726 30.747l.237-1.48 6.284 1.005-.237 1.48zM45.714 30.27l6.277-1.051.247 1.479-6.276 1.05z" fill="#aa264c" opacity="1" data-original="#aa264c"></path></g><path fill="#d6345b" d="M24.051 38.659A6.659 6.659 0 1 1 30.71 32a6.666 6.666 0 0 1-6.659 6.659zm0-11.818A5.159 5.159 0 1 0 29.21 32a5.164 5.164 0 0 0-5.159-5.159zM40.051 38.659A6.659 6.659 0 1 1 46.71 32a6.666 6.666 0 0 1-6.659 6.659zm0-11.818A5.159 5.159 0 1 0 45.21 32a5.164 5.164 0 0 0-5.159-5.159z" opacity="1" data-original="#d6345b"></path></g></svg>