<svg xmlns="http://www.w3.org/2000/svg" version="1.1" xmlns:xlink="http://www.w3.org/1999/xlink" width="512" height="512" x="0" y="0" viewBox="0 0 64 64" style="enable-background:new 0 0 512 512" xml:space="preserve" class=""><g><radialGradient id="a" cx="-59.992" cy="50.309" r="4.123" gradientTransform="matrix(1.333 0 0 1 111.99 0)" gradientUnits="userSpaceOnUse"><stop offset="0" stop-color="#f99"></stop><stop offset="1" stop-color="#f9bca2"></stop></radialGradient><radialGradient xlink:href="#a" id="b" cx="55.289" cy="55.407" r="45.067"></radialGradient><radialGradient id="c" cx="21.891" cy="9.609" r="20.088" gradientTransform="matrix(1.027 0 0 1.03 8.332 4.194)" gradientUnits="userSpaceOnUse"><stop offset="0" stop-color="#fbc8ba"></stop><stop offset="1" stop-color="#fcd0be"></stop></radialGradient><radialGradient xlink:href="#a" id="d" cx="32" cy="28.309" r="19.557"></radialGradient><path fill="#eec99d" d="M49.925 50.634c-1.053-2.317.424 5.506.424 5.506-2.541.282-5.789-1.694-5.789-1.694s-13.976 1.411-18.07.706-3.953-1.412-6.353.423a6.136 6.136 0 0 1-4.8 1.271 9.382 9.382 0 0 0-1.271-6.071c-1.976 4.941-3.529 5.506-3.529 5.506 1.412-6.212-2.4-4.941-4.659-12s2.541-10.729 2.259-13.835-5.788-8.471 3.106-18.635 19.765-7.906 19.765-7.906S55.713.94 55.572 23.528a22.057 22.057 0 0 0 2.4 13.412c3.671 6.776-7.482 9.035-2.541 17.929 0 0-4.094-1.129-5.506-4.235z" opacity="1" data-original="#eec99d" class=""></path><path fill="#d8ae82" d="M57.972 36.94a22.057 22.057 0 0 1-2.4-13.412 14.993 14.993 0 0 0-.871-4.756c-1.553-3.741-3.9-5.758-7.083-8.071-4.874-3.545-10.745-4.042-16.658-3.717-2.536.139-15.389-.894-21.179 11.991a14.041 14.041 0 0 0-.281 3.661c.192 2.23 1.141 3.6 1.079 5.518-.156 4.786-3.913 7.964-2.148 12.96 1.327 3.759 3.528 6.707 3.512 10.9a11.658 11.658 0 0 1-.562 3.577 15.918 15.918 0 0 0 2.688-4.812 9.382 9.382 0 0 1 1.271 6.071 6.136 6.136 0 0 0 4.8-1.271c2.4-1.835 2.259-1.129 6.353-.423s18.07-.706 18.07-.706 3.247 1.976 5.789 1.694c0 0-1.477-7.823-.424-5.506 1.412 3.106 5.506 4.235 5.506 4.235-4.944-8.898 6.209-11.157 2.538-17.933z" opacity="1" data-original="#d8ae82" class=""></path><path fill="#c49469" d="M49.723 41.965c.11-.991.238-1.979.372-2.967-3.458.085-6.917.222-10.377.491-7.865.613-16.32 2.54-24.411 2.571q-.056 1.08-.123 2.156a36.442 36.442 0 0 1-1.006 6.745 9.291 9.291 0 0 1 1.159 5.885 6.136 6.136 0 0 0 4.8-1.271c2.4-1.835 2.259-1.129 6.353-.423s18.07-.706 18.07-.706 3.247 1.976 5.789 1.694c0 0-.633-3.35-.774-5.016-.731-2.886-.165-6.332.148-9.159z" opacity="1" data-original="#c49469"></path><path fill="#93d0d8" d="M25 52.309h14a8 8 0 0 1 8 8H17a8 8 0 0 1 8-8z" opacity="1" data-original="#93d0d8"></path><path fill="url(#a)" d="M28 45.309h8v6.536a3.464 3.464 0 0 1-3.464 3.464h-1.072A3.464 3.464 0 0 1 28 51.845v-6.536z" opacity="1" data-original="url(#a)" class=""></path><path fill="#e58989" d="m36 50.705-8 1.31v-6.706h8z" opacity="1" data-original="#e58989"></path><path fill="url(#a)" d="M14.345 32.586s-2.941-1.1-4.113 1.086C9.1 35.784 12.162 43.957 18 44.309h28c5.838-.352 8.9-8.525 7.768-10.637-1.172-2.186-4.113-1.086-4.113-1.086z" opacity="1" data-original="url(#a)" class=""></path><path fill="url(#c)" d="M18.86 45.441a60.814 60.814 0 0 1-3.692-9.791 37.177 37.177 0 0 1-1.131-6.984 27.768 27.768 0 0 1 2.143-12.179c2.379-5.144 6.241-9.178 15.8-9.178s13.46 4.034 15.839 9.178a27.768 27.768 0 0 1 2.143 12.179 37.177 37.177 0 0 1-1.131 6.984 60.814 60.814 0 0 1-3.692 9.791c-2.382 5.159-23.896 5.159-26.279 0z" opacity="1" data-original="url(#c)" class=""></path><path fill="url(#a)" d="M47.82 16.487c-2.379-5.144-6.28-9.178-15.839-9.178s-13.422 4.034-15.8 9.178a27.768 27.768 0 0 0-2.143 12.179 37.177 37.177 0 0 0 1.131 6.984 54.882 54.882 0 0 0 2.743 7.68 22.885 22.885 0 0 1 .863-2.727 34.189 34.189 0 0 0 1.5-4.273 9.334 9.334 0 0 0-.214-3.973c-.489-2.459-1.1-5.458 1.22-7.2 1.327-1 3.149-1.388 4.68-1.985a15.352 15.352 0 0 0 4.84-2.885 1.111 1.111 0 0 1 1.323-.17c2.952 1.914 7.651 2.151 9.222 5.749a14.794 14.794 0 0 1 .879 4.595 30.559 30.559 0 0 1 .258 4.779 11.594 11.594 0 0 1-3.364 7.857 15.3 15.3 0 0 1-9.533 3.815 38.762 38.762 0 0 1-9.539-.124c5.158 3.767 22.94 3.32 25.1-1.342a60.814 60.814 0 0 0 3.692-9.791 37.177 37.177 0 0 0 1.131-6.984 27.768 27.768 0 0 0-2.15-12.184z" opacity="1" data-original="url(#a)" class=""></path><path fill="#d8ae82" d="M51.5 25.671c-1.044 2.587-2.4 5.383-2.688 8.187a24.928 24.928 0 0 0 .06 4.453 13.27 13.27 0 0 1-.06 8.1 15.291 15.291 0 0 1-3.066 5c-.052.111-.094.215-.149.327a7.177 7.177 0 0 0 4.659-4.518c1.271-3.67 1.271-2.682.424-7.623-.824-4.809-.5-8.313 1.267-14.849a7.833 7.833 0 0 0-.447.923z" opacity="1" data-original="#d8ae82" class=""></path><path fill="#eec99d" d="M40.941 7.693S34.6 5.723 32 6.865c-2.6-1.142-8.941.828-8.941.828-7.759 2.541-12.706 10.871-11.153 16.518C13.8 31.1 14.165 34.658 13.318 39.6s-.847 3.953.424 7.623A7.177 7.177 0 0 0 18.4 51.74c-1.7-3.529-2.289-6.035-1.271-10.87 1.129-5.365 2.823-6.495 1.412-10.165s-.847-6.918 4.376-8.612a25.149 25.149 0 0 0 8.471-4.659 2.209 2.209 0 0 0 .611-.67 2.209 2.209 0 0 0 .611.67 25.149 25.149 0 0 0 8.471 4.659c5.223 1.694 5.788 4.941 4.376 8.612s.283 4.8 1.412 10.165c1.018 4.835.424 7.341-1.271 10.87a7.177 7.177 0 0 0 4.659-4.518c1.271-3.67 1.271-2.682.424-7.623s-.484-8.5 1.412-15.388c1.554-5.647-3.388-13.977-11.152-16.518z" opacity="1" data-original="#eec99d" class=""></path><path fill="#d8ae82" d="M34.066 18.568c.087-.835-.291-10.843-.515-12.031A4.783 4.783 0 0 0 32 6.865l-.025-.008c-.005 3.424.192 6.843.29 10.258a15.6 15.6 0 0 0 1.801 1.453zM25.04 19.473a12 12 0 0 0-5.825 2.427 7.659 7.659 0 0 0-2.415 5.925c-.011 2.284.741 4.536.654 6.805-.087 2.3-1.069 4.378-1.605 6.582a11.689 11.689 0 0 0-.028 5.343 13.237 13.237 0 0 0 2.379 5.122c.126.042.2.063.2.063-1.7-3.529-2.289-6.035-1.271-10.87 1.129-5.365 2.823-6.495 1.412-10.165s-.847-6.918 4.376-8.612a25.74 25.74 0 0 0 8.2-4.43 23.186 23.186 0 0 1-6.077 1.81z" opacity="1" data-original="#d8ae82" class=""></path><g fill="#ffe4c7"><path d="M20.339 12.073a11.762 11.762 0 0 1 3.779-1.218 9.747 9.747 0 0 0 3.231-.837A8.181 8.181 0 0 0 30.7 6.559c-2.966-.315-7.644 1.134-7.644 1.134C15.465 10.179 10.588 18.2 11.831 23.83a16.582 16.582 0 0 1 8.508-11.757z" fill="#ffe4c7" opacity="1" data-original="#ffe4c7" class=""></path><ellipse cx="38.98" cy="10.445" rx="2.478" ry="3.755" transform="rotate(-67.79 38.977 10.44)" fill="#ffe4c7" opacity="1" data-original="#ffe4c7" class=""></ellipse><path d="M47.1 34.168a24.565 24.565 0 0 1 .665-3.745 8.231 8.231 0 0 0-.184-4.666 11.707 11.707 0 0 0-5.56-3.323c4.349 1.767 4.762 4.833 3.439 8.271-1.411 3.67.283 4.8 1.412 10.165 1.018 4.835.424 7.341-1.271 10.87 0 0 .094-.025.243-.075a33.149 33.149 0 0 0 1.971-3.895 12.634 12.634 0 0 0 1.138-4.716A11.085 11.085 0 0 0 48 38.647a10.757 10.757 0 0 1-.9-4.479z" fill="#ffe4c7" opacity="1" data-original="#ffe4c7" class=""></path></g><ellipse cx="24" cy="34.309" fill="#3b7e7f" rx="1.165" ry="1.553" opacity="1" data-original="#3b7e7f"></ellipse><ellipse cx="40" cy="34.309" fill="#3b7e7f" rx="1.165" ry="1.553" opacity="1" data-original="#3b7e7f"></ellipse><path fill="#e58989" d="m27.3 42.936-1.174.934a7.472 7.472 0 0 0 5.8 2.31c2.589 0 4.939-1.01 5.988-2.574l-1.246-.835c-.766 1.142-2.672 1.909-4.742 1.909a6.065 6.065 0 0 1-4.626-1.744z" opacity="1" data-original="#e58989"></path><g fill="#c49469"><path d="m19.699 30.717.292-1.978 8.303 1.225-.292 1.978zM35.703 29.92l8.303-1.226.292 1.978-8.303 1.225z" fill="#c49469" opacity="1" data-original="#c49469"></path></g></g></svg>