<svg xmlns="http://www.w3.org/2000/svg" version="1.1" xmlns:xlink="http://www.w3.org/1999/xlink" width="512" height="512" x="0" y="0" viewBox="0 0 64 64" style="enable-background:new 0 0 512 512" xml:space="preserve" class=""><g><radialGradient id="a" cx="-17.992" cy="51" r="4.123" gradientTransform="matrix(1.333 0 0 1 55.99 0)" gradientUnits="userSpaceOnUse"><stop offset="0" stop-color="#f99"></stop><stop offset="1" stop-color="#f9bca2"></stop></radialGradient><radialGradient xlink:href="#a" id="b" cx="44.183" cy="51.454" r="51.321"></radialGradient><radialGradient id="c" cx="26.378" cy="15.188" r="20.088" gradientTransform="matrix(1.027 0 0 1.03 3.722 -.862)" gradientUnits="userSpaceOnUse"><stop offset="0" stop-color="#fbc8ba"></stop><stop offset="1" stop-color="#fcd0be"></stop></radialGradient><radialGradient xlink:href="#a" id="d" cx="77.219" cy="6.843" r="56.089"></radialGradient><path fill="#93d0d8" d="M25 53h14a8 8 0 0 1 8 8H17a8 8 0 0 1 8-8z" opacity="1" data-original="#93d0d8"></path><path fill="url(#a)" d="M28 46h8v6.536A3.464 3.464 0 0 1 32.536 56h-1.072A3.464 3.464 0 0 1 28 52.536V46z" opacity="1" data-original="url(#a)"></path><path fill="#e58989" d="m36 51.395-8 1.311V46h8z" opacity="1" data-original="#e58989"></path><path fill="url(#a)" d="M14.345 33.276s-2.942-1.1-4.113 1.087C9.1 36.474 12.162 44.647 18 45h28c5.838-.353 8.9-8.526 7.768-10.637-1.172-2.186-4.113-1.087-4.113-1.087z" opacity="1" data-original="url(#a)"></path><path fill="url(#c)" d="M18.86 46.131a60.7 60.7 0 0 1-3.692-9.79 37.186 37.186 0 0 1-1.131-6.985 27.763 27.763 0 0 1 2.143-12.178C18.559 12.034 22.421 8 31.981 8s13.46 4.034 15.839 9.178a27.763 27.763 0 0 1 2.143 12.178 37.186 37.186 0 0 1-1.131 6.985 60.8 60.8 0 0 1-3.692 9.79c-2.384 5.158-23.897 5.158-26.28 0z" opacity="1" data-original="url(#c)"></path><path fill="url(#a)" d="M47.82 17.178C45.441 12.034 41.54 8 31.981 8s-13.422 4.034-15.8 9.178a27.763 27.763 0 0 0-2.143 12.178 37.186 37.186 0 0 0 1.131 6.985c.072.267.15.526.226.789.05 0 .1 0 .15.014 1.685.332 2.019-3.047 2.034-4.137a1.654 1.654 0 0 1 .825-1.436c1.268-.642 1.417-1.758 1.434-3.081a1.68 1.68 0 0 1 1.662-1.664c1.3.137 1.876-1.812 2.007-2.854.163-1.3 1.769-2.375 2.84-1.176a3.925 3.925 0 0 0 3 1.481c.9-.118 1.71-1.217 2.418-1.742a1.683 1.683 0 0 1 2.277.6c1.089 1.61 3.219 1.761 4.9 1.118a1.631 1.631 0 0 1 1.619.428c2.351 2.435 2.127 6.1 2.091 9.238-.034 2.839-.345 5.728-2.129 8.053-1.993 2.595-5.286 3.653-8.384 4.257a31.323 31.323 0 0 1-10.919.25c-.815-.131-1.62-.3-2.422-.482l.063.137c2.383 5.158 23.9 5.158 26.28 0a60.8 60.8 0 0 0 3.692-9.79 37.186 37.186 0 0 0 1.131-6.985 27.763 27.763 0 0 0-2.144-12.181z" opacity="1" data-original="url(#a)"></path><path fill="#eec99d" d="M55 24.467c0-3.155-2.027-5.713-4.528-5.713a3.605 3.605 0 0 0-.683.072 5.291 5.291 0 0 0 1.2-5c-.707-2.684-3.188-4.3-5.54-3.6a4 4 0 0 0-1.062.518 4.878 4.878 0 0 0-3.595-5.724 4.628 4.628 0 0 0-4.763 1.534 4.367 4.367 0 0 0-3.337-3.447 4.092 4.092 0 0 0-4.769 2.527 2.731 2.731 0 0 0-1.885-.774 2.888 2.888 0 0 0-2.8 2.6 4.37 4.37 0 0 0-1.43-.614 4.032 4.032 0 0 0-4.976 4.58 4.741 4.741 0 0 0-2.125.145 4.905 4.905 0 0 0-3.344 5.9 4.431 4.431 0 0 0 1.314 2.129 4.9 4.9 0 0 0-3.661 4.58 4.927 4.927 0 0 0 3.361 5.26A3.033 3.033 0 0 0 11.01 32a2.925 2.925 0 0 0 2.837 3 2.924 2.924 0 0 0 2.837-3 3.084 3.084 0 0 0-.662-1.908 2.924 2.924 0 0 0 2.837-3 3.132 3.132 0 0 0-.185-1.04 4.7 4.7 0 0 0 3.7-4.555 4.561 4.561 0 0 0-.267-1.482 4.247 4.247 0 0 0 2.978-1.3 4.384 4.384 0 0 0 3.091 2.6 4.1 4.1 0 0 0 4.541-2.035 4.357 4.357 0 0 0 1.5.656 4.216 4.216 0 0 0 2.361-.15 2.892 2.892 0 0 0 2.8 2.643 2.718 2.718 0 0 0 1.787-.689A5.087 5.087 0 0 0 44 25.46a4.776 4.776 0 0 0 2.1.454 5.711 5.711 0 0 0 2.177 3.547 3.057 3.057 0 0 0-1.03 2.3 2.842 2.842 0 1 0 5.674 0 3.081 3.081 0 0 0-.737-2A5.871 5.871 0 0 0 55 24.467z" opacity="1" data-original="#eec99d"></path><path fill="#d8ae82" d="M55 24.467a6.075 6.075 0 0 0-2.336-5 7.123 7.123 0 0 1 .218 1.751 5.867 5.867 0 0 1-2.818 5.289 3.084 3.084 0 0 1 .736 2 2.924 2.924 0 0 1-2.837 3 2.706 2.706 0 0 1-.682-.1 2.843 2.843 0 1 0 5.637.34 3.081 3.081 0 0 0-.737-2A5.871 5.871 0 0 0 55 24.467zM39.057 18.482a2.721 2.721 0 0 1-1.788.689 2.89 2.89 0 0 1-2.8-2.643 4.218 4.218 0 0 1-2.361.15 4.362 4.362 0 0 1-1.506-.656 4.1 4.1 0 0 1-4.54 2.035 4.38 4.38 0 0 1-3.091-2.6 4.251 4.251 0 0 1-2.978 1.3 4.561 4.561 0 0 1 .267 1.482 4.7 4.7 0 0 1-3.7 4.555 3.126 3.126 0 0 1 .185 1.039 2.925 2.925 0 0 1-2.837 3 3.084 3.084 0 0 1 .663 1.909 2.924 2.924 0 0 1-2.837 3 2.66 2.66 0 0 1-.677-.1 3.153 3.153 0 0 0-.047.358 2.925 2.925 0 0 0 2.837 3 2.925 2.925 0 0 0 2.838-3 3.085 3.085 0 0 0-.663-1.908 2.924 2.924 0 0 0 2.837-3 3.132 3.132 0 0 0-.185-1.04 4.7 4.7 0 0 0 3.7-4.555 4.561 4.561 0 0 0-.267-1.482 4.247 4.247 0 0 0 2.978-1.3 4.384 4.384 0 0 0 3.091 2.6 4.1 4.1 0 0 0 4.541-2.035 4.362 4.362 0 0 0 1.506.656 4.214 4.214 0 0 0 2.36-.15 2.892 2.892 0 0 0 2.8 2.643 2.706 2.706 0 0 0 1.742-.656 5.089 5.089 0 0 1-2.068-3.291z" opacity="1" data-original="#d8ae82"></path><g fill="#ffe4c7"><ellipse cx="14.659" cy="15.394" rx="2.541" ry="1.664" transform="rotate(-69.2 14.649 15.39)" fill="#ffe4c7" opacity="1" data-original="#ffe4c7"></ellipse><ellipse cx="12.2" cy="22.249" rx="1.766" ry="1.407" transform="rotate(-69.2 12.19 22.241)" fill="#ffe4c7" opacity="1" data-original="#ffe4c7"></ellipse><ellipse cx="25.847" cy="7.426" rx="1.766" ry="1.407" transform="rotate(-69.2 25.834 7.427)" fill="#ffe4c7" opacity="1" data-original="#ffe4c7"></ellipse><ellipse cx="21.018" cy="14.152" rx="1.407" ry="1.12" transform="rotate(-30 21.017 14.153)" fill="#ffe4c7" opacity="1" data-original="#ffe4c7"></ellipse><ellipse cx="19.808" cy="9.015" rx="2.421" ry="1.287" transform="rotate(-30 19.808 9.016)" fill="#ffe4c7" opacity="1" data-original="#ffe4c7"></ellipse><ellipse cx="44.358" cy="22.31" rx="1.585" ry="1.901" transform="rotate(-30 44.357 22.312)" fill="#ffe4c7" opacity="1" data-original="#ffe4c7"></ellipse><ellipse cx="41.019" cy="18.353" rx=".87" ry="1.15" transform="rotate(-30 41.019 18.355)" fill="#ffe4c7" opacity="1" data-original="#ffe4c7"></ellipse><ellipse cx="31.014" cy="6.073" rx="2.092" ry="1.739" transform="rotate(-30 31.014 6.074)" fill="#ffe4c7" opacity="1" data-original="#ffe4c7"></ellipse><ellipse cx="39.108" cy="7.767" rx="2.092" ry="1.739" transform="rotate(-30 39.108 7.769)" fill="#ffe4c7" opacity="1" data-original="#ffe4c7"></ellipse><ellipse cx="32.379" cy="12.284" rx="1.739" ry="2.092" transform="rotate(-60 32.38 12.285)" fill="#ffe4c7" opacity="1" data-original="#ffe4c7"></ellipse></g><path fill="#3b7e7f" d="M24 32.67c-.965 0-1.747 1.043-1.747 2.33s.782 2.329 1.747 2.329 1.747-1.043 1.747-2.329-.782-2.33-1.747-2.33zM40 32.67c-.965 0-1.747 1.043-1.747 2.33s.782 2.329 1.747 2.329 1.747-1.043 1.747-2.329-.782-2.33-1.747-2.33z" opacity="1" data-original="#3b7e7f"></path><path fill="#e58989" d="M31.921 45.371a6.065 6.065 0 0 1-4.621-1.745l-1.174.934a7.471 7.471 0 0 0 5.795 2.311c2.59 0 4.94-1.011 5.989-2.574l-1.246-.836c-.764 1.139-2.672 1.91-4.743 1.91z" opacity="1" data-original="#e58989"></path><g fill="#c49469"><path d="m26.354 29.142 1.221-.872a4.733 4.733 0 0 0-3.716-1.8 3.9 3.9 0 0 0-3.5 1.967l1.342.671a2.39 2.39 0 0 1 2.153-1.138 3.211 3.211 0 0 1 2.5 1.172zM40.142 26.474a4.732 4.732 0 0 0-3.717 1.8l1.218.876a3.212 3.212 0 0 1 2.5-1.172 2.414 2.414 0 0 1 2.157 1.141l1.338-.678a3.9 3.9 0 0 0-3.496-1.967z" fill="#c49469" opacity="1" data-original="#c49469"></path></g></g></svg>