<svg xmlns="http://www.w3.org/2000/svg" version="1.1" xmlns:xlink="http://www.w3.org/1999/xlink" width="512" height="512" x="0" y="0" viewBox="0 0 64 64" style="enable-background:new 0 0 512 512" xml:space="preserve" class=""><g><radialGradient id="a" cx="-59.629" cy="47.895" r="4.123" gradientTransform="matrix(1.333 0 0 1 111.99 0)" gradientUnits="userSpaceOnUse"><stop offset="0" stop-color="#f99"></stop><stop offset="1" stop-color="#f9bca2"></stop></radialGradient><radialGradient xlink:href="#a" id="b" cx="50.96" cy="46.724" r="45.322"></radialGradient><radialGradient id="c" cx="22.362" cy="2.358" r="20.088" gradientTransform="matrix(1.027 0 0 1.03 8.332 9.25)" gradientUnits="userSpaceOnUse"><stop offset="0" stop-color="#fbc8ba"></stop><stop offset="1" stop-color="#fcd0be"></stop></radialGradient><radialGradient xlink:href="#a" id="d" cx="71.477" cy="-4.923" r="57.506"></radialGradient><path fill="#4c443d" d="M31.4 1.749S6.408-.792 11.35 30.408c0 0 7.278 6.445 8.692 7.246 0 0 13.906 3.106 22.694 1.023 0 0 9.084-9.4 10.4-8.551.002 0 3.864-30.118-21.736-28.377z" opacity="1" data-original="#4c443d"></path><path fill="#332b26" d="M10.024 47.613S4.2 49.09 6.22 55.067c1.69 4.991-1.1 6.786-1.1 6.786s3.98-1.229 3.83-4.763 2.338-2.225 3.153-4.941.188-4.849-2.079-4.536z" opacity="1" data-original="#332b26"></path><circle cx="12.056" cy="45.984" r="2.211" fill="#332b26" opacity="1" data-original="#332b26"></circle><circle cx="13.938" cy="42.22" r="2.211" fill="#332b26" opacity="1" data-original="#332b26"></circle><path fill="#332b26" d="M53.976 47.613s5.827 1.477 3.8 7.454c-1.69 4.991 1.1 6.786 1.1 6.786S54.9 60.624 55.05 57.09s-2.338-2.225-3.153-4.941-.188-4.849 2.079-4.536z" opacity="1" data-original="#332b26"></path><circle cx="51.944" cy="45.937" r="2.211" fill="#332b26" opacity="1" data-original="#332b26"></circle><circle cx="50.062" cy="42.22" r="2.211" fill="#332b26" opacity="1" data-original="#332b26"></circle><path fill="#93d0d8" d="M25.484 49.9h14a8 8 0 0 1 8 8h-30a8 8 0 0 1 8-8z" opacity="1" data-original="#93d0d8"></path><path fill="url(#a)" d="M28.484 42.9h8v6.536A3.464 3.464 0 0 1 33.02 52.9h-1.072a3.464 3.464 0 0 1-3.464-3.464V42.9z" opacity="1" data-original="url(#a)"></path><path fill="#e58989" d="m36.484 48.291-8 1.31v-6.706h8z" opacity="1" data-original="#e58989"></path><path fill="url(#a)" d="M14.829 30.172s-2.941-1.1-4.113 1.086c-1.13 2.112 1.93 10.285 7.768 10.637h28c5.838-.352 8.9-8.525 7.768-10.637-1.171-2.186-4.113-1.086-4.113-1.086z" opacity="1" data-original="url(#a)"></path><path fill="url(#c)" d="M19.344 43.027a60.777 60.777 0 0 1-3.692-9.791 37.177 37.177 0 0 1-1.131-6.984 27.76 27.76 0 0 1 2.144-12.179c2.378-5.144 6.24-9.178 15.8-9.178S45.926 8.929 48.3 14.073a27.768 27.768 0 0 1 2.143 12.179 37.177 37.177 0 0 1-1.131 6.984 60.588 60.588 0 0 1-3.692 9.791c-2.379 5.158-23.892 5.158-26.276 0z" opacity="1" data-original="url(#c)"></path><path fill="url(#a)" d="M48.3 14.073c-2.378-5.144-6.28-9.178-15.839-9.178s-13.422 4.034-15.8 9.178a27.76 27.76 0 0 0-2.144 12.179A34.714 34.714 0 0 0 15 30.21c.39-2.249.9-4.481 1.3-6.732.177-1 1.755-.736 1.737.235a9.22 9.22 0 0 0 2.3 5.515 5.383 5.383 0 0 1 1.27-3.458.894.894 0 0 1 1.478.39 10.187 10.187 0 0 0 3.363 4.273 21.655 21.655 0 0 1 .649-3.991.9.9 0 0 1 1.616-.211 9.635 9.635 0 0 1 1.154 2.791 3.485 3.485 0 0 1 .846-1.487.9.9 0 0 1 1.388.179 9.555 9.555 0 0 1 1.177 2.912c.422-1.306.461-2.881 1.25-3.971a.9.9 0 0 1 1.615.211c.223.74.3 1.561.53 2.317a15.9 15.9 0 0 0 1.758-2.2 10.492 10.492 0 0 1 1.833-2.365c1.055-.826 2.125-.217 2.615.883 1.179 2.647.86 6.244.385 8.986-.607 3.51-2.262 7.135-5.682 8.668a14.4 14.4 0 0 1-5.476.965 41.163 41.163 0 0 1-6.767-.375 24.646 24.646 0 0 1-6.375-1.545c.129.287.258.567.38.832 2.384 5.158 23.9 5.158 26.28 0a60.588 60.588 0 0 0 3.692-9.791 37.177 37.177 0 0 0 1.131-6.984A27.768 27.768 0 0 0 48.3 14.073z" opacity="1" data-original="url(#a)"></path><path fill="#4c443d" d="M31.4 1.749S6.408-.792 11.35 30.408c0 0 2.065-1.037 3.479-.236 0 0-1.032-10.588 4.8-14.635 0 0-1.788 6.4.188 11.012A37.946 37.946 0 0 1 22.926 21a9.764 9.764 0 0 0 2.918 6.4 29.6 29.6 0 0 1 2.635-9.6s1.412 7.812 1.506 9.6a26.209 26.209 0 0 0 2.165-6.117 24.508 24.508 0 0 1 .75 6.017s3.388-2.07 2.447-9.318c0 0 2.258 1.6 1.788 9.13 0 0 3.953-2.541 3.953-9.318a16.4 16.4 0 0 1 2.823 7.341s1.506-6.3.565-9.317c0 0 5.108 4.139 5.66 14.352a3.289 3.289 0 0 1 3-.046S57 .008 31.4 1.749z" opacity="1" data-original="#4c443d"></path><g fill="#3d352f"><path d="M23.081 22.3a10.656 10.656 0 0 0 2.763 5.1 33.016 33.016 0 0 1 1.055-5.5q-1.899.241-3.818.4zM18.935 22.518a12.351 12.351 0 0 0 .885 4.031s1.132-2.423 2.172-4.174q-1.527.102-3.057.143zM15.4 22.529a66.466 66.466 0 0 1-4.685-.289 47.775 47.775 0 0 0 .636 8.168s2.065-1.037 3.479-.236a26.063 26.063 0 0 1 .57-7.643zM34.187 20.606a82.625 82.625 0 0 1-5.05.966c.382 2.265.8 4.881.848 5.824a26.209 26.209 0 0 0 2.165-6.117 24.508 24.508 0 0 1 .75 6.021s2.647-1.629 2.606-7.025a24.69 24.69 0 0 1-1.319.331zM50.356 11.481a22.2 22.2 0 0 1-5.462 4.728c1.221 1.231 4.788 5.514 5.245 13.963a3.289 3.289 0 0 1 3-.046s1.327-10.418-2.783-18.645zM41.334 18.146a16.5 16.5 0 0 1 2.58 6.991s1.334-5.592.7-8.759a32.705 32.705 0 0 1-3.28 1.768zM36.511 19.993a18.717 18.717 0 0 1 .627 7.121s3.754-2.432 3.936-8.848a35.88 35.88 0 0 1-4.563 1.727z" fill="#3d352f" opacity="1" data-original="#3d352f"></path></g><ellipse cx="20.033" cy="7.956" fill="#68605a" rx="3.715" ry="2.261" transform="rotate(-34.25 20.028 7.952)" opacity="1" data-original="#68605a"></ellipse><path fill="#4c443d" d="M24.484 31.342c-.643 0-1.165.7-1.165 1.553s.522 1.553 1.165 1.553 1.165-.7 1.165-1.553-.522-1.553-1.165-1.553zM40.484 31.342c-.643 0-1.165.7-1.165 1.553s.522 1.553 1.165 1.553 1.165-.7 1.165-1.553-.522-1.553-1.165-1.553z" opacity="1" data-original="#4c443d"></path><path fill="#e58989" d="M32.405 42.267a6.063 6.063 0 0 1-4.621-1.745l-1.174.934a7.471 7.471 0 0 0 5.8 2.311c2.589 0 4.94-1.011 5.99-2.575l-1.247-.836c-.771 1.144-2.677 1.911-4.748 1.911z" opacity="1" data-original="#e58989"></path><g fill="#4c443d"><path d="m20.66 29.27.381-1.963 6.308 1.227-.382 1.963zM37.64 28.552l6.307-1.22.38 1.963-6.308 1.22z" fill="#4c443d" opacity="1" data-original="#4c443d"></path></g></g></svg>